<?xml version="1.0" standalone="no"?>
<!DOCTYPE svg PUBLIC "-//W3C//DTD SVG 20010904//EN"
 "http://www.w3.org/TR/2001/REC-SVG-20010904/DTD/svg10.dtd">
<svg version="1.0" xmlns="http://www.w3.org/2000/svg"
 width="270.000000pt" height="270.000000pt" viewBox="0 0 270.000000 270.000000"
 preserveAspectRatio="xMidYMid meet">
<metadata>
Created by potrace 1.11, written by Peter Selinger 2001-2013
</metadata>
<g transform="translate(0.000000,270.000000) scale(0.100000,-0.100000)"
fill="#000000" stroke="none">
<path d="M98 2671 c-27 -17 -57 -48 -72 -74 l-26 -44 0 -1219 0 -1220 29 -46
c16 -26 39 -51 50 -57 14 -8 405 -11 1287 -11 l1267 0 33 36 34 35 0 1261 c0
1257 0 1260 -21 1289 -11 16 -40 40 -63 54 l-43 25 -1214 0 -1215 0 -46 -29z
m1337 -329 c-20 -16 -14 -17 125 -18 128 0 155 -4 235 -28 223 -68 395 -208
395 -322 0 -33 -8 -52 -37 -91 -21 -26 -47 -66 -58 -87 -19 -37 -90 -102 -208
-190 -69 -51 -238 -132 -329 -157 -40 -11 -84 -28 -98 -37 -14 -9 -31 -15 -38
-14 -11 3 -12 -26 -7 -150 3 -84 11 -177 17 -207 12 -52 11 -54 -15 -76 -14
-13 -72 -37 -128 -55 -88 -27 -105 -30 -131 -19 -53 22 -63 71 -25 122 45 61
52 92 31 145 -15 39 -18 79 -19 229 l-2 181 27 25 c32 31 87 47 160 47 64 0
117 22 204 83 34 24 95 64 138 90 103 64 135 101 143 171 4 30 4 59 0 65 -3 6
-25 21 -48 32 -33 17 -51 20 -96 15 -56 -6 -56 -6 -32 12 l23 19 -53 23 c-46
19 -64 22 -124 16 -179 -15 -432 -101 -469 -158 -10 -16 -14 -35 -10 -54 4
-23 -1 -37 -31 -71 -34 -41 -38 -42 -65 -30 -92 39 -197 158 -173 196 56 91
537 309 683 310 34 0 35 0 15 -17z m90 -1657 c23 -13 60 -44 83 -69 36 -39 42
-52 42 -88 0 -38 -5 -47 -52 -91 -61 -57 -206 -130 -294 -148 -72 -15 -139 -4
-226 34 -54 24 -56 27 -67 76 -18 84 -14 109 23 154 18 23 41 56 49 73 24 46
41 58 65 43 16 -10 30 -8 78 10 127 47 227 49 299 6z"/>
</g>
</svg>
