<svg xmlns="http://www.w3.org/2000/svg" viewBox="0 0 42.13 49.87"><defs><style>.cls-1{fill:#fff;}.cls-2{fill:none;stroke:#000;stroke-miterlimit:10;stroke-width:3px;}</style></defs><title>arrow</title><g id="Layer_2" data-name="Layer 2"><g id="Layer_2-2" data-name="Layer 2"><path class="cls-1" d="M34.47,19.91,2.46,3,12.71,37.17a.63.63,0,0,0,1.15,0l4.67-8.69,15.33,19.3L40,42.87l-15.09-19L34.22,21A.62.62,0,0,0,34.47,19.91Z"/></g><g id="Layer_2_copy_2" data-name="Layer 2 copy 2"><path class="cls-1" d="M34.47,19.91,2.46,3,12.71,37.17a.63.63,0,0,0,1.15,0l4.67-8.69,15.33,19.3L40,42.87l-15.09-19L34.22,21A.62.62,0,0,0,34.47,19.91Z"/></g><g id="Layer_2_copy" data-name="Layer 2 copy"><path class="cls-2" d="M34.47,19.91,2.46,3,12.71,37.17a.63.63,0,0,0,1.15,0l4.67-8.69,15.33,19.3L40,42.87l-15.09-19L34.22,21A.62.62,0,0,0,34.47,19.91Z"/></g></g></svg>