<svg xmlns="http://www.w3.org/2000/svg" viewBox="0 0 259.5 253.5"><defs><style>.cls-1{fill:#b4c1c4;opacity:0.54;}.cls-2{fill:#d2edf3;}.cls-3{fill:#ec1e24;opacity:0.5;}.cls-4,.cls-5,.cls-6{fill:none;stroke:#000;stroke-linecap:round;stroke-miterlimit:10;}.cls-4,.cls-6{stroke-width:9px;}.cls-5{stroke-width:7px;}.cls-5,.cls-6{fill-rule:evenodd;}</style></defs><title>code-illi-2</title><g id="Layer_2" data-name="Layer 2"><g id="Layer_1-2" data-name="Layer 1"><path class="cls-1" d="M32,66.5H222a32,32,0,0,1,32,32v150a0,0,0,0,1,0,0H0a0,0,0,0,1,0,0v-150A32,32,0,0,1,32,66.5Z" transform="translate(254 315) rotate(180)"/><path class="cls-1" d="M233.72,54.58a11.42,11.42,0,0,1,5.6,9.82V220.73a11.44,11.44,0,0,1-11.44,11.44H24.05a11.32,11.32,0,0,1-7-2.44A19.13,19.13,0,0,0,35.92,246H233.37a19.12,19.12,0,0,0,19.13-19.13V73.7A19.13,19.13,0,0,0,233.72,54.58Z"/><path class="cls-2" d="M32,0H221.49a32,32,0,0,1,32,32V67a0,0,0,0,1,0,0H0a0,0,0,0,1,0,0V32A32,32,0,0,1,32,0Z"/><circle class="cls-3" cx="39.5" cy="34" r="13.5"/><circle class="cls-3" cx="75.5" cy="34" r="13.5"/><circle class="cls-3" cx="112.5" cy="34" r="13.5"/><line class="cls-4" x1="15.5" y1="67" x2="182.5" y2="67"/><path class="cls-5" d="M54,36.5A11.5,11.5,0,1,1,42.5,25"/><path class="cls-5" d="M89,36.5A11.5,11.5,0,1,1,77.5,25"/><path class="cls-5" d="M124,36.5A11.5,11.5,0,1,1,112.5,25"/><line class="cls-4" x1="221.5" y1="67" x2="249.5" y2="67"/><path class="cls-6" d="M209.5,196.59l21-29a17,17,0,0,0,0-21.5l-21-29"/><path class="cls-6" d="M56.5,117l-21,29a17,17,0,0,0,0,21.5l21,29"/><g id="Layer_2-2" data-name="Layer 2-2"><path d="M77.26,173.24a46.64,46.64,0,0,0,12.82-8.57c3-2.93,6.61-7.36,7.35-12,1-6.56-6-7.45-10-7.66a26.89,26.89,0,0,0-10.1,1.75c.19-1.74-.38-4.17-2.45-3.36a2.27,2.27,0,0,0-1.29,2c-.08.56-.08,1.17-.12,1.73-.08,1,0,1.13-.88,1.5-1.22.52-5.31,1.55-5.06,3.55.3,2.53,4.34.27,5.46-.07a122.71,122.71,0,0,1-3.85,19.35c-.28,1-.26,1.37-1,1.88-1.2.79-2.67,1-3.87,1.71a1.54,1.54,0,0,0-.48,2.4c.88.95,2.8-.06,3.79-.36-.28,1-.42.43-.21,1.52a1.35,1.35,0,0,0,2.26.86,3.13,3.13,0,0,0,.6-1.32c.35-1.1,0-1.21.63-2.08.43-.57,1.77-.77,2.4-1C74.58,174.48,75.92,173.86,77.26,173.24Zm-4.07-5.18A103.43,103.43,0,0,0,75.61,158c.33-1.68.62-3.38.88-5.08.06-.43.13-.85.19-1.27-.1-.55.08-.8.53-.76a5.64,5.64,0,0,1,1.74-.44,24.06,24.06,0,0,1,12.35-.17c.58.17,1.83.41,2,1.2s-.63,2-1,2.65a27.79,27.79,0,0,1-5.07,7c-4.36,4.44-9.78,7.41-15.06,10.12Z"/><path d="M99.84,165.92c1.31,1.11,3.14,0,3.48-1.7a18.82,18.82,0,0,0,0-3.6c0-3,.55-6,.42-8.92-.06-1.58-1.42-2.58-2.4-1s-1.6,4.3-2,6.31C98.83,159.36,97.88,164.27,99.84,165.92Z"/><path d="M106.52,152.42c.68,1.78,2.9.1,3.92-.36a18.16,18.16,0,0,0-.14,8.26c.36,1.5,1.07,2.94,2.6,2.94s2.91-1.56,4-2.64c.86-.9,1.64-1.9,2.47-2.85.69-.79,2.31-1.83,1.44-3.18-1.45-2.27-6.23,3.39-7.31,4.27a11.28,11.28,0,0,1-.18-4c.07-.6.16-1.21.26-1.81a8.49,8.49,0,0,1,.49-2.55c.6-.7,2.79-1,3.58-1.24,1.14-.34,2.53-.3,3.6-.7a1.54,1.54,0,0,0,.52-2.5c-.68-.66-1.7-.15-2.46,0-1.51.27-3,.53-4.47.9q.39-1.68.81-3.36a5.1,5.1,0,0,0,.36-2.35,1.21,1.21,0,0,0-1.65-.89c-.83.39-1.06,1.78-1.36,2.65-.36,1.05-.69,2.11-1,3.18a11.13,11.13,0,0,1-.56,1.93c-.23.28-.93.41-1.21.55C109.12,149.24,105.78,150.5,106.52,152.42Zm6.14,7h0Z"/><path d="M123.94,156.75c.11,1.06.16,2.85.74,3.72.82,1.24,2.14.4,2.27-.9a16.53,16.53,0,0,0-.08-1.86,9.07,9.07,0,0,1,.75-3.49,24.46,24.46,0,0,1,4.4-7.81c.9-1,1.63-1.63,2,0,.59,2.73-.18,6.11-.47,8.85-.13,1.2-.88,3.91.76,4.19s1.59-2.63,1.71-3.82c.3-2.94.9-6.16.55-9.11-.24-2-1.27-4.27-3.33-4.07-2.54.25-4.42,3.66-5.67,5.84.35-2.54.63-5.13,1.09-7.65a2.48,2.48,0,0,1,1.73-2.13c.64-.28,1.27-.45,1.26-1.48a1.38,1.38,0,0,0-1.35-1.39c-3.09-.3-4.36,3-4.91,5.82C124.42,146.46,123.44,151.62,123.94,156.75Z"/><path d="M139.89,155.89c.7-.27.66,0,1.19.55a5.81,5.81,0,0,0,1.65,1.21,6.47,6.47,0,0,0,4,.63,8.24,8.24,0,0,0,5.5-4.24c.44-.9.32-2.16-.77-2.34-.73-.12-1.05.44-1.46,1-1.72,2.23-4.56,3.87-6.92,1.69,3-1.64,6.95-4.28,7.64-8.34.6-3.57-2.46-4.28-4.79-3.3a11.39,11.39,0,0,0-6.25,7,7.8,7.8,0,0,0-.3,2,3.68,3.68,0,0,1,0,.47c-.11.95.26.25-.36,1-.39.45-.81.58-.8,1.36A1.31,1.31,0,0,0,139.89,155.89Zm8-10.7Zm-5.35,4.91c.93-2.1,3.22-4.23,5.29-4.5-.7,2.76-3.6,4.6-5.67,5.89A4.49,4.49,0,0,1,142.56,150.1Z"/><path d="M202.65,132.79c-.18-4.28-5.1-6.77-8.24-7.39a12,12,0,0,0-8.55,1.72,42.5,42.5,0,0,0-4.27,2.75,3.13,3.13,0,0,0-.64,4.29c.71,1,2.77,2.27,3.86,1.43,1.61-1.23-.4-2.64-1.13-3.4a9.31,9.31,0,0,1,9.77-2.76,11.71,11.71,0,0,1,4.09,2.53c1.11,1.09,1,1.72.24,3.14-1.95,3.64-5.6,4.65-9.09,4.5-2.27-.1-2.22,1.93-2.1,3.89.09,1.69.19,3.39.3,5.09,0,.79.13,1.6.14,2.4s-.25,1.66-.24,2.5c0,1.65,1.56,2.79,2.86,2,.95-.58,1.18-2,1.31-3.14a39.65,39.65,0,0,0,0-5.11,12.39,12.39,0,0,1-.09-3.32c.39-1.08,3.12-1.78,4.19-2.42a58.07,58.07,0,0,0,4.83-3.55C201.42,136.72,202.77,135.09,202.65,132.79Zm-19.14-.8a.28.28,0,0,1,0-.09s0,0,0,.09Z"/><path d="M178.52,161.84c-4.34-1.75-9.62-1.31-14.16-1.32-2.62,0-5.24.11-7.85.3-9.84.71-19.64,2.29-29.41,3.75a179.23,179.23,0,0,0-28,6.91c-6.31,2-12.77,4.09-18.74,7.21-1.16.6-4.71,1.9-4.46,3.82.33,2.42,4.41.6,5.62.24,3.23-.93,6.35-2.22,9.49-3.46,11.56-4.55,23.17-9.67,35.26-12A180.22,180.22,0,0,1,159,164c3.11,0,6.22.13,9.33.3,2.59.14,5.18.47,7.77.46.82,0,2.12.21,2.83-.42A1.56,1.56,0,0,0,178.52,161.84Z"/><path d="M181.52,142.52c-2.62-1.82-7,.35-9,2.49,0-1.3-.12-3.15-.92-4.18a1.31,1.31,0,1,0-2,1.64c.44.66.28,3,.2,3.89-.18,2.1-.51,4.19-.82,6.26a33.6,33.6,0,0,0-.52,3.44c-.05,1.2,1,2.56,2,1.47.59-.61.6-1.86.75-2.67a18.82,18.82,0,0,1,.68-3.17A10.15,10.15,0,0,1,175.5,147a10.82,10.82,0,0,1,2.84-1.48,3.22,3.22,0,0,1,1.32-.3c.76.17.27.17.76.78C182,147.88,183.56,144,181.52,142.52Zm-1.41,2.17a2.11,2.11,0,0,0,0,.25A.43.43,0,0,1,180.11,144.69Z"/><path d="M101.44,147.14c1.34.32,4,.67,5.11-.52,1-1-.46-2.67-1.31-3.18-1.23-.74-2.64.27-3.65,1.11S99.7,146.72,101.44,147.14Z"/><path d="M192.77,159.4c-3.32-1.76-12.24,3.47-7.08,6.81,1.83,1.19,4.59,1.6,6.33,0C193.34,165,195.06,160.61,192.77,159.4Z"/><path d="M154.65,157.81c1.59.4,1.7-2.16,1.91-3.31a13,13,0,0,1,1.54-4.76,10.61,10.61,0,0,1,2.74-2.81c.87-.62,3.3-2.24,4.39-1.73.45.2.5,1,1.2,1.2a1.24,1.24,0,0,0,1.41-.88c.73-1.8-.93-3.27-2.3-3.54-2.53-.51-5.78,1.05-7.65,3,0-1.3-.09-3.15-.9-4.19a1.31,1.31,0,1,0-2.05,1.63c.34.52.27,2.54.23,3.3-.14,2.24-.55,4.51-.89,6.7C154.09,153.68,152.87,157.35,154.65,157.81Zm10.82-13.08a1,1,0,0,0,0,.25.43.43,0,0,1,0-.25Z"/></g><path d="M229.76,11.5A20.77,20.77,0,0,1,250.5,32.24V223.76a20.77,20.77,0,0,1-20.74,20.74H36.24A20.77,20.77,0,0,1,15.5,223.76V32.24A20.77,20.77,0,0,1,36.24,11.5H229.76m0-9H36.24A29.75,29.75,0,0,0,6.5,32.24V223.76A29.75,29.75,0,0,0,36.24,253.5H229.76a29.75,29.75,0,0,0,29.74-29.74V32.24A29.75,29.75,0,0,0,229.76,2.5Z"/></g></g></svg>