<svg xmlns="http://www.w3.org/2000/svg" viewBox="0 0 463.64 194.89"><defs><style>.cls-1{fill:#fff;}</style></defs><title>ditherr-logo-4-w</title><g id="Layer_2" data-name="Layer 2"><g id="Layer_2-2" data-name="Layer 2"><path class="cls-1" d="M46.33,159.85c15.21-7.32,30.09-16.1,42.66-28.49,9.9-9.76,22-24.52,24.44-39.87,3.49-21.84-20-24.81-33.36-25.51-11.49-.61-22.61,2.09-33.6,5.83.63-5.78-1.29-13.89-8.15-11.17-2.66,1-3.89,3.59-4.32,6.56-.27,1.84-.25,3.88-.39,5.74-.27,3.43-.06,3.75-2.92,5C26.61,79.67,13,83.08,13.84,89.75c1,8.43,14.46.91,18.18-.24A406.59,406.59,0,0,1,19.19,153.9c-.93,3.32-.85,4.57-3.37,6.26-4,2.65-8.89,3.22-12.89,5.68-2.59,1.6-4.22,5.2-1.6,8,2.93,3.15,9.33-.2,12.6-1.21-.93,3.3-1.37,1.46-.7,5.06.71,3.85,4.93,5.47,7.52,2.89,1.17-1.16,1.48-2.84,2-4.42,1.17-3.66-.09-4,2.11-6.91,1.44-1.89,5.88-2.57,8-3.45C37.4,164,41.88,161.92,46.33,159.85ZM32.77,142.63c3.27-11,5.89-22.2,8.07-33.54q1.62-8.41,2.92-16.92c.21-1.41.43-2.82.63-4.23-.32-1.81.27-2.65,1.78-2.52,1.41-1,4.1-1.07,5.79-1.47,13.6-3.22,27.48-4.5,41.1-.55,1.91.55,6.08,1.36,6.67,4S97.65,94,96.58,96.19A92.12,92.12,0,0,1,79.7,119.67c-14.51,14.77-32.53,24.64-50.11,33.66Z"/><path class="cls-1" d="M121.45,135.5c4.37,3.7,10.47,0,11.59-5.64.71-3.59.07-8.26,0-12C133,108,134.88,98,134.46,88.2c-.22-5.27-4.73-8.61-8-3.49-3.55,5.57-5.33,14.32-6.71,21C118.1,113.67,114.93,130,121.45,135.5Z"/><path class="cls-1" d="M143.68,90.57c2.27,5.94,9.68.36,13.06-1.2-2,9.48-2.69,18.12-.45,27.5,1.19,5,3.54,9.8,8.64,9.78s9.69-5.18,13.16-8.79c2.89-3,5.46-6.32,8.22-9.47,2.31-2.64,7.7-6.08,4.82-10.58-4.84-7.56-20.74,11.27-24.33,14.2a37.47,37.47,0,0,1-.62-13.22c.24-2,.56-4,.89-6,.3-1.8.51-7.24,1.62-8.51,2-2.31,9.28-3.34,11.9-4.11,3.79-1.13,8.44-1,12-2.32a5.15,5.15,0,0,0,1.73-8.33c-2.26-2.19-5.66-.5-8.21,0-5,.91-9.94,1.75-14.85,3,.86-3.73,1.76-7.46,2.67-11.18.54-2.2,1.92-5.45,1.23-7.84-.75-2.63-3.29-4-5.51-2.94-2.77,1.29-3.53,5.91-4.52,8.8q-1.78,5.25-3.38,10.58c-.37,1.22-1.1,5.53-1.86,6.44s-3.07,1.35-4,1.82C152.35,80,141.24,84.19,143.68,90.57Zm20.44,23.33a.14.14,0,0,1,.06,0Z"/><path class="cls-1" d="M201.68,105c.35,3.52.52,9.46,2.46,12.38,2.72,4.1,7.1,1.33,7.54-3a51.61,51.61,0,0,0-.26-6.2c-.1-4.21,1.07-7.75,2.5-11.6,3.4-9.22,8.27-19,14.62-26,3-3.29,5.45-5.44,6.64.11,1.95,9.06-.6,20.32-1.57,29.45-.42,4-2.92,13,2.54,13.93s5.27-8.75,5.69-12.71c1-9.77,3-20.5,1.82-30.31-.81-6.77-4.22-14.22-11.08-13.55-8.46.82-14.72,12.18-18.86,19.45,1.16-8.46,2.08-17.09,3.61-25.46.73-4,2.42-5.7,5.76-7.11,2.15-.91,4.25-1.5,4.19-4.9-.05-3-2.18-4.42-4.49-4.65-10.29-1-14.51,10-16.33,19.39C203.26,70.76,200,87.93,201.68,105Z"/><path class="cls-1" d="M254.75,102.14c2.34-.91,2.2,0,3.95,1.83a19.82,19.82,0,0,0,5.48,4,21.48,21.48,0,0,0,13.37,2.11c6.93-1.25,14.8-6.92,18.29-14.11,1.48-3,1.07-7.2-2.56-7.8-2.43-.4-3.49,1.49-4.87,3.28-5.7,7.41-15.17,12.87-23,5.61,9.9-5.44,23.1-14.22,25.41-27.74,2-11.87-8.2-14.24-15.94-11C265.91,62.24,257,71,254.08,81.62a27.35,27.35,0,0,0-1,6.81,13.54,13.54,0,0,1,0,1.56c-.38,3.14.85.84-1.19,3.22-1.29,1.51-2.69,1.94-2.66,4.53C249.31,100.87,252.16,103.15,254.75,102.14Zm26.7-35.62h0S281.45,66.5,281.45,66.52ZM263.63,82.87c3.11-7,10.7-14.07,17.62-15-2.36,9.2-12,15.33-18.9,19.62A14.85,14.85,0,0,1,263.63,82.87Z"/><path class="cls-1" d="M463.61,25.24C463,11,446.63,2.74,436.18.67c-9.84-2-19.67.53-28.47,5.71a143.25,143.25,0,0,0-14.18,9.15,10.44,10.44,0,0,0-2.14,14.29c2.36,3.35,9.21,7.54,12.84,4.76,5.35-4.09-1.34-8.8-3.75-11.32,7.4-9.46,22.27-12.8,32.52-9.18a38.73,38.73,0,0,1,13.58,8.43c3.72,3.6,3.34,5.71.82,10.42-6.5,12.11-18.65,15.5-30.25,15-7.57-.36-7.39,6.41-7,12.92q.48,8.48,1,16.94c.15,2.65.42,5.32.46,8,0,2.84-.81,5.53-.8,8.31,0,5.49,5.19,9.28,9.52,6.66,3.18-1.93,3.94-6.72,4.36-10.44.62-5.5,0-11.42-.14-17-.08-2.77-1.2-8.53-.29-11.05,1.31-3.6,10.39-5.92,13.94-8.07,5.58-3.38,10.84-7.77,16.07-11.81S464,32.9,463.61,25.24Zm-63.69-2.63c-.12-.16-.18-.27-.17-.3S399.83,22.39,399.92,22.61Z"/><path class="cls-1" d="M383.3,121.94c-14.45-5.82-32-4.37-47.13-4.42-8.72,0-17.42.38-26.12,1-32.75,2.37-65.34,7.65-97.86,12.49-31.59,4.7-62.63,13.23-93.29,23-21,6.72-42.5,13.61-62.35,24-3.87,2-15.69,6.33-14.84,12.7,1.07,8.05,14.66,2,18.7.8,10.73-3.09,21.12-7.4,31.57-11.51,38.47-15.14,77.1-32.19,117.34-39.79,35.94-6.78,72.44-11,108.89-11.1,10.36,0,20.71.43,31.06,1,8.6.46,17.23,1.56,25.84,1.55,2.72,0,7.07.67,9.41-1.42C387.1,128,386.39,123.18,383.3,121.94Z"/><path class="cls-1" d="M393.28,57.65c-8.73-6.08-23.11,1.14-29.92,8.26,0-4.3-.39-10.48-3.06-13.9-3.53-4.53-10.17.29-6.79,5.46,1.48,2.2.93,9.9.67,12.94-.6,7-1.7,13.94-2.73,20.85-.56,3.73-1.57,7.66-1.73,11.42-.16,4,3.21,8.52,6.77,4.89,1.94-2,2-6.19,2.47-8.87.65-3.56,1.05-7.17,2.28-10.54a33.71,33.71,0,0,1,12-15.79,37.52,37.52,0,0,1,9.45-4.92c1.05-.36,3.26-1.25,4.4-1,2.54.56.91.58,2.54,2.61C394.77,75.48,400.06,62.51,393.28,57.65Zm-4.68,7.21a6,6,0,0,0-.08.84A1.38,1.38,0,0,1,388.6,64.86Z"/><path class="cls-1" d="M126.79,73c4.45,1.06,13.16,2.23,17-1.72,3.24-3.36-1.54-8.88-4.36-10.58-4.08-2.45-8.79.9-12.14,3.7C124.07,67,121,71.6,126.79,73Z"/><path class="cls-1" d="M430.72,113.8c-11.06-5.86-40.72,11.56-23.56,22.67,6.08,3.95,15.26,5.31,21.08.07C432.62,132.59,438.34,117.83,430.72,113.8Z"/><path class="cls-1" d="M303.86,108.51c5.3,1.34,5.65-7.18,6.35-11,1.06-5.69,2.08-11,5.14-15.85a35.5,35.5,0,0,1,9.1-9.34c2.92-2.08,11-7.46,14.62-5.78,1.5.69,1.68,3.47,4,4,2.05.52,3.87-.85,4.7-2.92,2.41-6-3.12-10.87-7.65-11.78-8.42-1.69-19.25,3.49-25.47,9.9,0-4.3-.32-10.48-3-13.92-3.51-4.56-10.18.21-6.83,5.4,1.15,1.73.92,8.46.76,11-.45,7.46-1.81,15-2.95,22.31C302,94.77,297.94,107,303.86,108.51Zm36-43.53a6,6,0,0,0-.08.84A1.38,1.38,0,0,1,339.86,65Z"/></g></g></svg>