<svg xmlns="http://www.w3.org/2000/svg" viewBox="0 0 73.75 68.76"><defs><style>.cls-1{fill:#fff;}.cls-2{fill:#231f20;}.cls-3,.cls-6,.cls-7,.cls-8{fill:none;}.cls-4{fill:#fd0;}.cls-5{fill:#ffcb05;}.cls-6,.cls-7,.cls-8{stroke:#000;stroke-width:3px;}.cls-6,.cls-8{stroke-linecap:round;}.cls-6{stroke-miterlimit:10;}.cls-7,.cls-8{stroke-linejoin:round;}</style></defs><title>emoji</title><g id="Layer_2" data-name="Layer 2"><g id="Layer_2-2" data-name="Layer 2"><circle class="cls-1" cx="39.49" cy="34.27" r="32.77"/><path class="cls-1" d="M4,38.4c-3.32.68-2.72,3.5-1.4,6.66S1.06,55.67,4,60.32s5.26,8.24,11.93,6.49,9.73-3.34,10.69-5.27-1.05-3.68-1.05-3.68a5.3,5.3,0,0,0,1.05-2.45c.09-1.23-1.4-1.76-1.4-1.76s1.75-.7,1.4-2.28a2.68,2.68,0,0,0-1.92-1.93S36.31,46.55,35,41.55s-8.5-.7-14.2,1.93A76.17,76.17,0,0,1,12.19,47S10.79,37,4,38.4Z"/><ellipse class="cls-2" cx="24.65" cy="16.21" rx="3.86" ry="5.27"/><ellipse class="cls-2" cx="43.26" cy="21.47" rx="4.41" ry="5"/><path class="cls-2" d="M20.79,33s5-6.49,12.68-4.38C42.15,31,42,36.64,42,36.64S39.2,33.46,31.4,32.11,20.79,33,20.79,33Z"/><path class="cls-3" d="M20.79,3.5s4.73.18,7.71,1.75a11.07,11.07,0,0,1,4.21,3.69"/><path class="cls-3" d="M36.75,12.44a15.53,15.53,0,0,0,7.71,0,8.67,8.67,0,0,0,4.91-3.5"/></g><g id="Layer_2_copy_2" data-name="Layer 2 copy 2"><circle class="cls-4" cx="39.49" cy="34.27" r="32.77"/><path class="cls-5" d="M4,38.4c-3.32.68-2.72,3.5-1.4,6.66S1.06,55.67,4,60.32s5.26,8.24,11.93,6.49,9.73-3.34,10.69-5.27-1.05-3.68-1.05-3.68a5.3,5.3,0,0,0,1.05-2.45c.09-1.23-1.4-1.76-1.4-1.76s1.75-.7,1.4-2.28a2.68,2.68,0,0,0-1.92-1.93S36.31,46.55,35,41.55s-8.5-.7-14.2,1.93A76.17,76.17,0,0,1,12.19,47S10.79,37,4,38.4Z"/><ellipse cx="24.65" cy="16.21" rx="5.27" ry="3.86" transform="translate(4.3 37.57) rotate(-79.73)"/><ellipse cx="43.26" cy="21.47" rx="4.41" ry="5"/><path d="M20.79,33s5-6.49,12.68-4.38C42.15,31,42,36.64,42,36.64S39.2,33.46,31.4,32.11,20.79,33,20.79,33Z"/><path class="cls-3" d="M20.79,3.5s4.73.18,7.71,1.75a11.07,11.07,0,0,1,4.21,3.69"/><path class="cls-3" d="M36.75,12.44a15.53,15.53,0,0,0,7.71,0,8.67,8.67,0,0,0,4.91-3.5"/></g><g id="Layer_2_copy" data-name="Layer 2 copy"><path class="cls-6" d="M21.32,7A32.76,32.76,0,0,0,6.77,32.4"/><path class="cls-6" d="M28.5,65.15A32.77,32.77,0,1,0,30.45,2.76"/><path class="cls-7" d="M4,38.4c-3.32.68-2.72,3.5-1.4,6.66S1.06,55.67,4,60.32s5.26,8.24,11.93,6.49,9.73-3.34,10.69-5.27-1.05-3.68-1.05-3.68a5.3,5.3,0,0,0,1.05-2.45c.09-1.23-1.4-1.76-1.4-1.76s1.75-.7,1.4-2.28a2.68,2.68,0,0,0-1.92-1.93S36.31,46.55,35,41.55s-8.5-.7-14.2,1.93A76.17,76.17,0,0,1,12.19,47S10.79,37,4,38.4Z"/><ellipse class="cls-3" cx="24.65" cy="16.21" rx="3.86" ry="5.27"/><ellipse class="cls-3" cx="43.26" cy="21.47" rx="4.41" ry="5"/><path d="M30.42,28.16a11.23,11.23,0,0,1,3,.42C42.15,31,42,36.64,42,36.64S39.2,33.46,31.4,32.11a28.34,28.34,0,0,0-4.7-.43c-4.27,0-5.91,1.28-5.91,1.28s3.7-4.8,9.63-4.8m0-1c-6.35,0-10.26,5-10.42,5.19a1,1,0,0,0,.08,1.32,1,1,0,0,0,.71.29,1,1,0,0,0,.61-.21s1.52-1.07,5.3-1.07a27,27,0,0,1,4.53.42c7.28,1.26,10,4.18,10,4.21a1,1,0,0,0,1.09.27,1,1,0,0,0,.66-.91c0-.27.05-6.5-9.27-9.06a12.7,12.7,0,0,0-3.32-.45Z"/><path class="cls-8" d="M20.79,3.5s4.73.18,7.71,1.75a11.07,11.07,0,0,1,4.21,3.69"/><path class="cls-8" d="M36.75,12.44a15.53,15.53,0,0,0,7.71,0,8.67,8.67,0,0,0,4.91-3.5"/></g></g></svg>