<svg xmlns="http://www.w3.org/2000/svg" viewBox="0 0 264 389.5"><defs><style>.cls-1{fill:#ec1e24;opacity:0.5;}.cls-1,.cls-3{fill-rule:evenodd;}.cls-2{fill:#426fb5;opacity:0.53;}.cls-3,.cls-4{fill:none;stroke:#000;stroke-linecap:round;stroke-miterlimit:10;stroke-width:7px;}.cls-5{fill:#fff;}</style></defs><title>graph-illi2</title><g id="Layer_2" data-name="Layer 2"><g id="Layer_1-2" data-name="Layer 1"><polygon class="cls-1" points="15 313.5 93 284.5 171 169.5 249 10.5 249 389.5 16 389.5 15 313.5"/><circle class="cls-2" cx="249" cy="14.5" r="13.5"/><circle class="cls-2" cx="171" cy="169.5" r="13.5"/><circle class="cls-2" cx="93" cy="284.5" r="13.5"/><circle class="cls-2" cx="16" cy="313.5" r="13.5"/><path class="cls-3" d="M104.5,285A11.5,11.5,0,1,1,93,273.5"/><path class="cls-3" d="M182.5,170A11.5,11.5,0,1,1,171,158.5"/><path class="cls-3" d="M260.5,15A11.5,11.5,0,1,1,249,3.5"/><path class="cls-3" d="M26.5,313A11.5,11.5,0,1,1,15,301.5"/><line class="cls-4" x1="184" y1="149.5" x2="236" y2="34.5"/><polyline class="cls-3" points="107 264.5 125 237.5 158 185.5"/><polyline class="cls-3" points="31 303.5 50.5 296.25 70 289"/><path class="cls-5" d="M133.65,313h3.09l2.53,16.26L140.45,313h4.06l-3,23.43h-3.83l-2.39-15.15-2.56,15.15H128.9l-3-23.43h4.06l1.18,16.26Z"/><path class="cls-5" d="M145.93,313h4v23.43h-4Zm1.77,0h8.64v3.9H147.7Zm0,9.85h7.83v3.88H147.7Zm0,9.68h8.64v3.9H147.7Z"/><path class="cls-5" d="M158.4,313h4v23.43h-4Zm2.29,19.67h3.51a1.6,1.6,0,0,0,1.15-.39,1.43,1.43,0,0,0,.41-1.1V328a2.5,2.5,0,0,0-.18-1,1.43,1.43,0,0,0-.56-.63,1.78,1.78,0,0,0-.89-.21h-3.44v-3.71H164a1.38,1.38,0,0,0,1.1-.45,1.86,1.86,0,0,0,.4-1.29v-2.51a1.37,1.37,0,0,0-1.49-1.5h-3.36V313h3.77a6,6,0,0,1,2.7.56,3.84,3.84,0,0,1,1.72,1.66,5.41,5.41,0,0,1,.59,2.61v2.52a4.25,4.25,0,0,1-.4,1.87,3.44,3.44,0,0,1-1.17,1.34,4.55,4.55,0,0,1-1.85.7,4.84,4.84,0,0,1,2,.7,3.54,3.54,0,0,1,1.27,1.39,4.26,4.26,0,0,1,.45,2v3.19a5.65,5.65,0,0,1-.58,2.64,3.92,3.92,0,0,1-1.7,1.67,5.9,5.9,0,0,1-2.69.57h-4.12Z"/><path class="cls-5" d="M174.64,336a4.73,4.73,0,0,1-2-2,6.41,6.41,0,0,1-.7-3.11v-1.26l4,0v1.25a1.89,1.89,0,0,0,.5,1.4,1.83,1.83,0,0,0,1.38.5,1.79,1.79,0,0,0,1.35-.49,1.9,1.9,0,0,0,.47-1.37v-2.05a1.81,1.81,0,0,0-.36-1.12,3.23,3.23,0,0,0-.93-.82c-.38-.23-.9-.51-1.56-.83l-.12-.07-.12-.06-.21-.1a13.29,13.29,0,0,1-2.22-1.38,5.47,5.47,0,0,1-1.53-1.89,6.19,6.19,0,0,1-.62-2.9v-1.21a6.41,6.41,0,0,1,.69-3.07,4.63,4.63,0,0,1,2-1.95,6.65,6.65,0,0,1,3.14-.68,6.45,6.45,0,0,1,3.08.68,4.5,4.5,0,0,1,2,2,6.54,6.54,0,0,1,.68,3.12v1.32l-4,0v-1.34a2,2,0,0,0-.46-1.41,1.62,1.62,0,0,0-1.28-.51,1.82,1.82,0,0,0-1.34.46,1.68,1.68,0,0,0-.48,1.27v1.56a1.9,1.9,0,0,0,.35,1.14,3.1,3.1,0,0,0,.87.82c.35.22.83.48,1.46.79l.36.18.38.19.05,0,.06,0a18.12,18.12,0,0,1,2.16,1.31,4.9,4.9,0,0,1,1.4,1.7,6,6,0,0,1,.58,2.81v1.95a6.64,6.64,0,0,1-.68,3.11,4.66,4.66,0,0,1-2,2,6.76,6.76,0,0,1-3.13.68A6.89,6.89,0,0,1,174.64,336Z"/><path class="cls-5" d="M190.14,336.43h-4V313h4Z"/><path class="cls-5" d="M191.08,313h11.73v3.83H191.08Zm3.86,2h4v21.46h-4Z"/><path class="cls-5" d="M204.06,313h4v23.43h-4Zm1.78,0h8.63v3.9h-8.63Zm0,9.85h7.83v3.88h-7.83Zm0,9.68h8.63v3.9h-8.63Z"/><path class="cls-5" d="M126.1,371a4.68,4.68,0,0,1-2-2,6.41,6.41,0,0,1-.7-3.11v-1.26l4,0v1.25a1.89,1.89,0,0,0,.5,1.4,1.83,1.83,0,0,0,1.38.5,1.79,1.79,0,0,0,1.35-.49,2,2,0,0,0,.47-1.37v-2.05a1.81,1.81,0,0,0-.36-1.12,3.23,3.23,0,0,0-.93-.82c-.39-.23-.9-.51-1.56-.83l-.12-.07-.12-.06-.21-.1a13.29,13.29,0,0,1-2.22-1.38,5.49,5.49,0,0,1-1.54-1.89,6.32,6.32,0,0,1-.61-2.9v-1.21a6.41,6.41,0,0,1,.69-3.07,4.57,4.57,0,0,1,2-1.95,6.65,6.65,0,0,1,3.14-.68,6.45,6.45,0,0,1,3.08.68,4.5,4.5,0,0,1,2,2,6.66,6.66,0,0,1,.68,3.12v1.32l-4,0v-1.34a2,2,0,0,0-.46-1.41,1.64,1.64,0,0,0-1.28-.51,1.86,1.86,0,0,0-1.35.46,1.71,1.71,0,0,0-.47,1.27v1.56a1.84,1.84,0,0,0,.35,1.14,3.1,3.1,0,0,0,.87.82,16.27,16.27,0,0,0,1.45.79l.37.18.37.19.06,0,.06,0a18.12,18.12,0,0,1,2.16,1.31,5,5,0,0,1,1.4,1.7,6,6,0,0,1,.58,2.81v1.95a6.52,6.52,0,0,1-.69,3.11,4.61,4.61,0,0,1-2,2,6.71,6.71,0,0,1-3.12.68A6.86,6.86,0,0,1,126.1,371Z"/><path class="cls-5" d="M141.6,371.43h-4V348h4Z"/><path class="cls-5" d="M155.84,358.78v7a6.76,6.76,0,0,1-.68,3.16,4.73,4.73,0,0,1-2,2,6.49,6.49,0,0,1-3.13.7,6.77,6.77,0,0,1-3.17-.68,4.61,4.61,0,0,1-2-2,6.34,6.34,0,0,1-.7-3.08V353.8a7.12,7.12,0,0,1,.68-3.25,4.74,4.74,0,0,1,2-2.07,7.17,7.17,0,0,1,6.2,0,4.62,4.62,0,0,1,1.95,2,6.91,6.91,0,0,1,.68,3.16v1.81h-4.11v-1.81a2.24,2.24,0,0,0-.19-1,1.49,1.49,0,0,0-.56-.63,1.64,1.64,0,0,0-.84-.22,1.74,1.74,0,0,0-.93.24,1.64,1.64,0,0,0-.6.7,2.47,2.47,0,0,0-.21,1.06V366a1.79,1.79,0,0,0,.21.88,1.5,1.5,0,0,0,.64.58,2.32,2.32,0,0,0,1,.2,2.25,2.25,0,0,0,1-.21,1.48,1.48,0,0,0,.65-.61,2,2,0,0,0,.23-1v-3.2h-2v-3.84Z"/><path class="cls-5" d="M158.71,348h3.14l5.52,15.63-.44.63V348h3.64v23.41H167.4L162,356.69l.42-.65v15.37h-3.66Z"/><path class="cls-5" d="M180.6,371a4.6,4.6,0,0,1-1.92-2,7.11,7.11,0,0,1-.66-3.18V348h4v17.87a2,2,0,0,0,.42,1.33,1.45,1.45,0,0,0,1.16.47,1.49,1.49,0,0,0,1.18-.47,1.9,1.9,0,0,0,.43-1.33V348h4v17.76a7,7,0,0,1-.67,3.18,4.62,4.62,0,0,1-1.93,2,6.84,6.84,0,0,1-6,0Z"/><path class="cls-5" d="M191.84,348h4v23.43h-4Zm1.87,10.51h4.14a1.55,1.55,0,0,0,.84-.23,1.44,1.44,0,0,0,.55-.66,2.49,2.49,0,0,0,.19-1v-2.76a2.91,2.91,0,0,0-.18-1.08,1.49,1.49,0,0,0-.54-.68,1.52,1.52,0,0,0-.86-.24h-4.14V348H198a6.7,6.7,0,0,1,3,.61,4.25,4.25,0,0,1,1.88,1.8,5.87,5.87,0,0,1,.65,2.84v3.95a5.5,5.5,0,0,1-.66,2.78,4.25,4.25,0,0,1-1.89,1.76,6.78,6.78,0,0,1-3,.6h-4.25Z"/><path class="cls-5" d="M208.34,371a4.73,4.73,0,0,1-2-2,6.41,6.41,0,0,1-.7-3.11v-1.26l4,0v1.25a1.89,1.89,0,0,0,.5,1.4,1.83,1.83,0,0,0,1.38.5,1.79,1.79,0,0,0,1.35-.49,1.9,1.9,0,0,0,.47-1.37v-2.05a1.81,1.81,0,0,0-.36-1.12,3.23,3.23,0,0,0-.93-.82c-.38-.23-.9-.51-1.56-.83l-.12-.07-.12-.06-.21-.1a13.29,13.29,0,0,1-2.22-1.38,5.36,5.36,0,0,1-1.53-1.89,6.19,6.19,0,0,1-.62-2.9v-1.21a6.41,6.41,0,0,1,.69-3.07,4.63,4.63,0,0,1,2-1.95,6.65,6.65,0,0,1,3.14-.68,6.45,6.45,0,0,1,3.08.68,4.5,4.5,0,0,1,2,2,6.54,6.54,0,0,1,.68,3.12v1.32l-4,0v-1.34a2,2,0,0,0-.46-1.41,1.62,1.62,0,0,0-1.28-.51,1.82,1.82,0,0,0-1.34.46,1.68,1.68,0,0,0-.48,1.27v1.56a1.9,1.9,0,0,0,.35,1.14,3.1,3.1,0,0,0,.87.82c.35.22.83.48,1.45.79l.37.18.38.19,0,0,.06,0a18.12,18.12,0,0,1,2.16,1.31,4.9,4.9,0,0,1,1.4,1.7,6,6,0,0,1,.58,2.81v1.95a6.64,6.64,0,0,1-.68,3.11,4.66,4.66,0,0,1-2,2,6.79,6.79,0,0,1-3.13.68A6.86,6.86,0,0,1,208.34,371Z"/></g></g></svg>