<svg xmlns="http://www.w3.org/2000/svg" viewBox="0 0 47.83 61.58"><defs><style>.cls-1{fill:#fff;}.cls-2,.cls-3,.cls-4{fill:none;}.cls-3,.cls-4{stroke:#000;stroke-linecap:round;stroke-width:3px;}.cls-3{stroke-linejoin:round;}.cls-4{stroke-miterlimit:10;}</style></defs><title>hand</title><g id="Layer_2" data-name="Layer 2"><g id="Layer_2_copy" data-name="Layer 2 copy"><path class="cls-1" d="M14.11,28.21V5.53a4,4,0,0,1,4-4h0a4,4,0,0,1,4,4v8.06a1.31,1.31,0,0,0,1.31,1.3h5.44a1.31,1.31,0,0,1,1.31,1.31h0a1.31,1.31,0,0,0,1.31,1.31H37a1.31,1.31,0,0,1,1.31,1.3v.11a1.31,1.31,0,0,0,1.3,1.31h2.74a4,4,0,0,1,4,4V43.8a1.66,1.66,0,0,1,0,.32l-3.75,15a1.3,1.3,0,0,1-1.26,1H17.18a1.31,1.31,0,0,1-1.3-1.31V50a1.38,1.38,0,0,0-.26-.78L1.76,30.66a1.31,1.31,0,0,1-.26-.79v-3a1.31,1.31,0,0,1,1.29-1.3l4.56-.06a1.33,1.33,0,0,1,1,.46l5.32,6.15.43-3.74C14.1,28.31,14.11,28.26,14.11,28.21Z"/><line class="cls-2" x1="22.16" y1="6.73" x2="22.16" y2="23.75"/><line class="cls-2" x1="30.26" y1="16.76" x2="30.26" y2="25.58"/><line class="cls-2" x1="38.28" y1="18.76" x2="38.28" y2="26.36"/><line class="cls-2" x1="14.03" y1="18.07" x2="14.03" y2="33.92"/><path class="cls-1" d="M14.11,28.21V5.53a4,4,0,0,1,4-4h0a4,4,0,0,1,4,4v8.06a1.31,1.31,0,0,0,1.31,1.3h5.44a1.31,1.31,0,0,1,1.31,1.31h0a1.31,1.31,0,0,0,1.31,1.31H37a1.31,1.31,0,0,1,1.31,1.3v.11a1.31,1.31,0,0,0,1.3,1.31h2.74a4,4,0,0,1,4,4V43.8a1.66,1.66,0,0,1,0,.32l-3.75,15a1.3,1.3,0,0,1-1.26,1H17.18a1.31,1.31,0,0,1-1.3-1.31V50a1.38,1.38,0,0,0-.26-.78L1.76,30.66a1.31,1.31,0,0,1-.26-.79v-3a1.31,1.31,0,0,1,1.29-1.3l4.56-.06a1.33,1.33,0,0,1,1,.46l5.32,6.15.43-3.74C14.1,28.31,14.11,28.26,14.11,28.21Z"/><line class="cls-2" x1="22.16" y1="6.73" x2="22.16" y2="23.75"/><line class="cls-2" x1="30.26" y1="16.76" x2="30.26" y2="25.58"/><line class="cls-2" x1="38.28" y1="18.76" x2="38.28" y2="26.36"/><line class="cls-2" x1="14.03" y1="18.07" x2="14.03" y2="33.92"/><path class="cls-3" d="M14.11,28.21V5.53a4,4,0,0,1,4-4h0a4,4,0,0,1,4,4v8.06a1.31,1.31,0,0,0,1.31,1.3h5.44a1.31,1.31,0,0,1,1.31,1.31h0a1.31,1.31,0,0,0,1.31,1.31H37a1.31,1.31,0,0,1,1.31,1.3v.11a1.31,1.31,0,0,0,1.3,1.31h2.74a4,4,0,0,1,4,4V43.8a1.66,1.66,0,0,1,0,.32l-3.75,15a1.3,1.3,0,0,1-1.26,1H17.18a1.31,1.31,0,0,1-1.3-1.31V50a1.38,1.38,0,0,0-.26-.78L1.76,30.66a1.31,1.31,0,0,1-.26-.79v-3a1.31,1.31,0,0,1,1.29-1.3l4.56-.06a1.33,1.33,0,0,1,1,.46l5.32,6.15.43-3.74C14.1,28.31,14.11,28.26,14.11,28.21Z"/><line class="cls-4" x1="22.16" y1="6.73" x2="22.16" y2="23.75"/><line class="cls-4" x1="30.26" y1="16.76" x2="30.26" y2="25.58"/><line class="cls-4" x1="38.28" y1="18.76" x2="38.28" y2="26.36"/><line class="cls-4" x1="14.03" y1="18.07" x2="14.03" y2="33.92"/></g></g></svg>