<svg xmlns="http://www.w3.org/2000/svg" viewBox="0 0 421.55 287.13"><defs><style>.cls-1{fill:#fff;}.cls-2{fill:#d3edf3;}.cls-3{fill:#b4c1c4;}.cls-4{fill:#6abd45;}.cls-5{fill:#426fb6;}.cls-6{fill:#ed2024;}.cls-7{fill:#787778;}.cls-8,.cls-9{fill:none;stroke:#000;stroke-miterlimit:10;stroke-width:3px;}.cls-8{stroke-linecap:round;}.cls-10{fill:#fd0;}.cls-11{fill:#f36f21;}</style></defs><title>illi-3b</title><g id="Layer_2" data-name="Layer 2"><g id="Layer_1-2" data-name="Layer 1"><g id="Layer_2-2" data-name="Layer 2-2"><rect class="cls-1" x="181.03" y="35" width="89.79" height="23.54" rx="6.51"/><rect class="cls-1" x="308.07" y="75.83" width="89.79" height="23.54" rx="6.51"/><path class="cls-1" d="M333.75,205.26v6.64a6,6,0,0,1-6,6H308.07"/><path class="cls-1" d="M175.59,272.31V191.58a5.92,5.92,0,0,1,5.91-5.91H297.94a5.93,5.93,0,0,1,5.91,5.91v80.73"/><path class="cls-1" d="M181,272.31V198a2.48,2.48,0,0,1,2.47-2.49H295.89a2.48,2.48,0,0,1,2.49,2.49v74.31"/><rect class="cls-1" x="229.63" y="1.5" width="142.47" height="200.11" rx="5.91"/><rect class="cls-1" x="235.67" y="11.87" width="130.38" height="179.35" rx="2.49"/><rect class="cls-1" x="53.59" y="128.05" width="94.47" height="147.11" rx="5.91"/><rect class="cls-1" x="21.59" y="43.71" width="60.26" height="25.53" rx="3.23"/><rect class="cls-1" x="205.59" y="46.77" width="101.45" height="35.06" rx="8.26"/><rect class="cls-1" x="384.99" y="19.88" width="35.06" height="35.06" rx="2.98"/><rect class="cls-1" x="42.01" y="16.14" width="106.04" height="35.06" rx="8.26"/><rect class="cls-1" x="7.12" y="81.84" width="136.34" height="35.06" rx="4.68"/><rect class="cls-1" x="167.63" y="106.69" width="82.72" height="42.72" rx="6.04"/><path class="cls-1" d="M119.63,134.73v3.36a2,2,0,0,1-2,2H84a2,2,0,0,1-2-2v-3.36a2,2,0,0,0-2-2H60.61a2,2,0,0,0-2,2V268.26a2,2,0,0,0,2,2H141a2,2,0,0,0,2-2V134.73a2,2,0,0,0-2-2H121.6A2,2,0,0,0,119.63,134.73Z"/><rect class="cls-1" x="1.5" y="160.14" width="80.34" height="25.53" rx="3.23"/><path class="cls-1" d="M157.39,272.31H322v8.9a4.42,4.42,0,0,1-4.42,4.42H161.81a4.42,4.42,0,0,1-4.42-4.42h0v-8.9Z"/></g><g id="Layer_2_copy_2" data-name="Layer 2 copy 2"><rect class="cls-2" x="53.59" y="128.05" width="94.47" height="147.11" rx="5.91"/><path class="cls-3" d="M119.63,134.73v3.36a2,2,0,0,1-2,2H84a2,2,0,0,1-2-2v-3.36a2,2,0,0,0-2-2H60.61a2,2,0,0,0-2,2V268.26a2,2,0,0,0,2,2H141a2,2,0,0,0,2-2V134.73a2,2,0,0,0-2-2H121.6A2,2,0,0,0,119.63,134.73Z"/><path class="cls-4" d="M333.75,205.26v6.64a6,6,0,0,1-6,6H292.39V192.82h41.36Z"/><path class="cls-2" d="M175.59,272.31V191.58a5.92,5.92,0,0,1,5.91-5.91H297.94a5.93,5.93,0,0,1,5.91,5.91v80.73"/><path class="cls-3" d="M181,272.31V198a2.48,2.48,0,0,1,2.47-2.49H295.89a2.48,2.48,0,0,1,2.49,2.49v74.31"/><rect class="cls-5" x="181.03" y="35" width="89.79" height="23.54" rx="6.51"/><rect class="cls-4" x="308.07" y="75.83" width="89.79" height="23.54" rx="6.51"/><rect class="cls-2" x="229.63" y="1.5" width="142.47" height="200.11" rx="5.91"/><rect class="cls-3" x="235.67" y="11.87" width="130.38" height="179.35" rx="2.49"/><rect class="cls-6" x="42.01" y="16.14" width="106.04" height="35.06" rx="8.26"/><rect class="cls-5" x="21.59" y="43.71" width="60.26" height="25.53" rx="3.23"/><rect class="cls-5" x="384.99" y="19.88" width="35.06" height="35.06" rx="2.98"/><rect class="cls-4" x="7.12" y="81.84" width="136.34" height="35.06" rx="4.68"/><rect class="cls-6" x="167.63" y="106.69" width="82.72" height="42.72" rx="6.04"/><path class="cls-2" d="M157.39,272.31H322v8.9a4.42,4.42,0,0,1-4.42,4.42H161.81a4.42,4.42,0,0,1-4.42-4.42h0v-8.9Z"/></g><g id="Layer_2_copy" data-name="Layer 2 copy"><rect class="cls-1" x="69.63" y="183.95" width="64.35" height="10.72"/><rect class="cls-7" x="69.36" y="175.98" width="36.19" height="4.77"/><rect class="cls-1" x="69.63" y="212.39" width="64.35" height="10.72"/><rect class="cls-7" x="69.36" y="204.42" width="36.19" height="4.77"/><rect class="cls-1" x="69.63" y="155.51" width="64.35" height="10.72"/><path class="cls-6" d="M1.5,182.09V163a3.24,3.24,0,0,1,3.23-3.24H78.61A3.24,3.24,0,0,1,81.84,163v19.06a3.24,3.24,0,0,1-3.23,3.24H4.73"/><rect class="cls-7" x="69.36" y="147.54" width="36.19" height="4.77"/><rect class="cls-1" x="286.86" y="22.94" width="64.35" height="10.72"/><rect class="cls-1" x="286.86" y="41" width="64.35" height="10.72"/><rect class="cls-1" x="286.86" y="59.06" width="64.35" height="10.72"/><rect class="cls-1" x="286.86" y="77.12" width="64.35" height="10.72"/><rect class="cls-1" x="286.86" y="95.17" width="64.35" height="10.72"/><rect class="cls-1" x="286.86" y="113.23" width="64.35" height="10.72"/><rect class="cls-1" x="286.86" y="131.29" width="64.35" height="10.72"/><path class="cls-4" d="M292.22,153h53.63a5.36,5.36,0,0,1,5.36,5.36h0a5.36,5.36,0,0,1-5.36,5.36H292.22a5.36,5.36,0,0,1-5.36-5.36h0A5.36,5.36,0,0,1,292.22,153Z"/><path class="cls-8" d="M200.48,58.54H187.53A6.5,6.5,0,0,1,181,52.07V41.51A6.5,6.5,0,0,1,187.49,35h38.4"/><path class="cls-8" d="M376.82,75.83h14.54a6.5,6.5,0,0,1,6.5,6.5V92.86a6.5,6.5,0,0,1-6.49,6.51H375.8"/><path class="cls-8" d="M333.75,205.26v6.64a6,6,0,0,1-6,6H308.07"/><path class="cls-8" d="M303.85,206.26v66.05"/><path class="cls-8" d="M175.59,272.31V191.58a5.92,5.92,0,0,1,5.91-5.91h43.42"/><path class="cls-8" d="M298.41,207.39v64.92"/><path class="cls-8" d="M181,272.31V198a2.48,2.48,0,0,1,2.47-2.49h41.74"/><line class="cls-8" x1="229.63" y1="101.55" x2="229.63" y2="89.71"/><path class="cls-8" d="M229.63,40.71V7.41a5.93,5.93,0,0,1,5.91-5.91H366.18a5.92,5.92,0,0,1,5.92,5.91V195.69a5.92,5.92,0,0,1-5.91,5.91H235.54a5.92,5.92,0,0,1-5.91-5.91h0v-39"/><line class="cls-8" x1="235.67" y1="101.55" x2="235.67" y2="86.26"/><path class="cls-8" d="M235.67,39.71V14.37a2.5,2.5,0,0,1,2.49-2.5h125.4a2.48,2.48,0,0,1,2.49,2.49h0V188.73a2.48,2.48,0,0,1-2.48,2.5H238.16a2.5,2.5,0,0,1-2.49-2.5v-33.4"/><path class="cls-8" d="M53.59,156.05V134a5.92,5.92,0,0,1,5.91-5.91h82.64a5.92,5.92,0,0,1,5.91,5.91h0V269.24a5.92,5.92,0,0,1-5.9,5.92H59.5a5.92,5.92,0,0,1-5.91-5.91h0v-76.7"/><rect class="cls-9" x="21.59" y="43.71" width="60.26" height="25.53" rx="3.23"/><rect class="cls-9" x="384.99" y="19.88" width="35.06" height="35.06" rx="2.98"/><line class="cls-8" x1="135.12" y1="51.2" x2="87.46" y2="51.2"/><path class="cls-8" d="M42,38.94V24.39a8.25,8.25,0,0,1,8.25-8.25H139.8a8.25,8.25,0,0,1,8.25,8.25v13"/><rect class="cls-9" x="7.12" y="81.84" width="136.34" height="35.06" rx="4.68"/><rect class="cls-9" x="167.63" y="106.69" width="82.72" height="42.72" rx="6.04"/><path class="cls-8" d="M58.61,189.71v78.55a2,2,0,0,0,2,2H141a2,2,0,0,0,2-2V134.73a2,2,0,0,0-2-2H121.6a2,2,0,0,0-2,2v3.36a2,2,0,0,1-2,2H84a2,2,0,0,1-2-2v-3.36a2,2,0,0,0-2-2H60.61a2,2,0,0,0-2,2v21.32"/><path class="cls-8" d="M1.5,182.43V163.37a3.23,3.23,0,0,1,3.23-3.23H78.61a3.23,3.23,0,0,1,3.23,3.23v19.06a3.24,3.24,0,0,1-3.23,3.24H19.12"/><path class="cls-9" d="M157.39,272.31H322v8.9a4.42,4.42,0,0,1-4.42,4.42H161.81a4.42,4.42,0,0,1-4.42-4.42h0v-8.9Z"/><path class="cls-1" d="M28,177.3a2.49,2.49,0,0,1-1-.93l1.42-1a1.57,1.57,0,0,0,1.22.61,1,1,0,0,0,.77-.35,1.61,1.61,0,0,0,.27-1v-6.29h1.81v6.29a3.7,3.7,0,0,1-.35,1.64,2.3,2.3,0,0,1-1,1,3.27,3.27,0,0,1-1.6.36A3.42,3.42,0,0,1,28,177.3Z"/><path class="cls-1" d="M36.52,177.21a2.9,2.9,0,0,1-1.18-1.2,3.68,3.68,0,0,1-.42-1.78v-2.62a3.68,3.68,0,0,1,.42-1.78,2.9,2.9,0,0,1,1.18-1.2,3.94,3.94,0,0,1,3.54,0,2.9,2.9,0,0,1,1.18,1.2,3.68,3.68,0,0,1,.42,1.78v2.62a3.68,3.68,0,0,1-.42,1.78,2.9,2.9,0,0,1-1.18,1.2A3.94,3.94,0,0,1,36.52,177.21Zm2.59-1.52a1.32,1.32,0,0,0,.55-.57,1.77,1.77,0,0,0,.2-.85v-2.7a1.77,1.77,0,0,0-.2-.85,1.32,1.32,0,0,0-.55-.57,1.56,1.56,0,0,0-.82-.2,1.85,1.85,0,0,0-.83.2,1.32,1.32,0,0,0-.55.57,1.92,1.92,0,0,0-.19.85v2.7a1.92,1.92,0,0,0,.19.85,1.32,1.32,0,0,0,.55.57,1.85,1.85,0,0,0,.83.2A1.56,1.56,0,0,0,39.11,175.69Z"/><path class="cls-1" d="M45.83,177.54H44v-9.23h1.81Z"/><path class="cls-1" d="M48.38,168.31h2.13l3.43,7.07-.15.16v-7.23h1.66v9.22H53.31l-3.42-7,.15-.17v7.13H48.38Z"/><path class="cls-1" d="M38.57,60.27l-.56-.1a5,5,0,0,1-1-.31,3.48,3.48,0,0,1-.86-.49l1-1.37a4.15,4.15,0,0,0,1,.47,3.09,3.09,0,0,0,1,.17,2.72,2.72,0,0,0,.94-.14c.23-.09.34-.22.34-.38a.39.39,0,0,0-.15-.33.82.82,0,0,0-.37-.16c-.21,0-.42-.07-.64-.09H38.7a8,8,0,0,1-1.18-.24,1.48,1.48,0,0,1-.75-.53,1.84,1.84,0,0,1-.31-1.16,1.86,1.86,0,0,1,1.24-1.84,4,4,0,0,1,1.46-.24,4.78,4.78,0,0,1,1,.1,4.4,4.4,0,0,1,1,.29,4.66,4.66,0,0,1,.85.46l-1,1.26a4.42,4.42,0,0,0-.9-.38,3.91,3.91,0,0,0-.9-.13,2.27,2.27,0,0,0-.82.12c-.2.08-.29.19-.29.34a.28.28,0,0,0,.15.25,1.07,1.07,0,0,0,.39.14c.15,0,.38.06.68.09h.34a7.63,7.63,0,0,1,1.25.23,1.62,1.62,0,0,1,.82.56A1.93,1.93,0,0,1,42,58.1,2,2,0,0,1,40.69,60a4.2,4.2,0,0,1-1.53.25Z"/><path class="cls-1" d="M45.9,60.27l-.68-.34a2.3,2.3,0,0,1-1-1,3.56,3.56,0,0,1-.35-1.6v-.74a3.68,3.68,0,0,1,.34-1.67,2.3,2.3,0,0,1,1-1,3.15,3.15,0,0,1,1.57-.36,2.51,2.51,0,0,1,1.48.43,2.57,2.57,0,0,1,.93,1.25,5.45,5.45,0,0,1,.32,2v.44H45V56.42h2.92v-.15a1.53,1.53,0,0,0-.36-.88,1,1,0,0,0-.77-.31,1.28,1.28,0,0,0-1,.37,1.47,1.47,0,0,0-.34,1.06v.84a1.41,1.41,0,0,0,.37,1,1.47,1.47,0,0,0,1.06.37,1.8,1.8,0,0,0,.69-.13,2.16,2.16,0,0,0,.63-.35l1.13,1a3.87,3.87,0,0,1-1.15.73,3.38,3.38,0,0,1-1.3.25Z"/><path class="cls-1" d="M51.65,53.59h1.74v6.59H51.65Zm3.81,2.6a1,1,0,0,0-.28-.75,1.05,1.05,0,0,0-.78-.27,1,1,0,0,0-.75.27,1,1,0,0,0-.26.76l-.14-1.46a2.36,2.36,0,0,1,.72-.93,1.63,1.63,0,0,1,1-.31,1.91,1.91,0,0,1,1.61.7,3,3,0,0,1,.57,2v4H55.46Z"/><path class="cls-1" d="M60.39,59.94a2.15,2.15,0,0,1-.76-1,4.23,4.23,0,0,1-.26-1.54v-1a4.32,4.32,0,0,1,.26-1.55,1.95,1.95,0,0,1,1.95-1.33,1.63,1.63,0,0,1,1,.31,2.17,2.17,0,0,1,.7.89l-.14,1.46a1.24,1.24,0,0,0-.11-.57.82.82,0,0,0-.33-.36,1.21,1.21,0,0,0-.53-.12.93.93,0,0,0-.76.33,1.42,1.42,0,0,0-.27.94v1a1.39,1.39,0,0,0,.27.92,1,1,0,0,0,.76.32,1.21,1.21,0,0,0,.53-.12.8.8,0,0,0,.33-.35,1.15,1.15,0,0,0,.11-.55l.09,1.5a1.63,1.63,0,0,1-1.62,1.13A2.1,2.1,0,0,1,60.39,59.94Zm2.72-9h1.74v9.23H63.11Z"/><path class="cls-2" d="M67.28,37l-.64-.14a4.81,4.81,0,0,1-1.18-.39,4.87,4.87,0,0,1-1-.61l.81-1.44a3.91,3.91,0,0,0,1.23.68,4.39,4.39,0,0,0,1.44.23,2.62,2.62,0,0,0,1.32-.28,1,1,0,0,0,.47-.82h0a.79.79,0,0,0-.21-.58,1.27,1.27,0,0,0-.55-.32,6.25,6.25,0,0,0-.86-.18h-.25a9.09,9.09,0,0,1-1.54-.37,2.17,2.17,0,0,1-1-.77,2.38,2.38,0,0,1-.43-1.55h0a2.92,2.92,0,0,1,.4-1.53,2.62,2.62,0,0,1,1.16-1,4.62,4.62,0,0,1,1.84-.33,4.79,4.79,0,0,1,1,.11,5.86,5.86,0,0,1,1,.33,6.61,6.61,0,0,1,.94.52L70.53,30a4.51,4.51,0,0,0-1.11-.58,3.57,3.57,0,0,0-1.12-.2,2.48,2.48,0,0,0-1.23.26.82.82,0,0,0-.44.74h0a.87.87,0,0,0,.23.63,1.25,1.25,0,0,0,.56.34c.33.09.66.17,1,.23h.25a7.39,7.39,0,0,1,1.46.42,2.26,2.26,0,0,1,1,.78,2.51,2.51,0,0,1,.39,1.49h0A2.67,2.67,0,0,1,71,35.72a2.6,2.6,0,0,1-1.2,1,4.94,4.94,0,0,1-1.9.33Z"/><path class="cls-2" d="M73.06,30.32h3.22v1.49H73.06Zm1.08,6.18a1.86,1.86,0,0,1-.41-1.3V28.41h1.74v6.36a.69.69,0,0,0,.1.37.31.31,0,0,0,.28.13h.43v1.67H75.4A1.64,1.64,0,0,1,74.14,36.5Z"/><path class="cls-2" d="M78.66,36.5a2,2,0,0,1-.52-1.5,1.82,1.82,0,0,1,.58-1.47A2.77,2.77,0,0,1,80.48,33h1.65l.09,1.32H80.49a.88.88,0,0,0-.59.16.57.57,0,0,0-.2.47.54.54,0,0,0,.25.48,1.49,1.49,0,0,0,.75.15,2.82,2.82,0,0,0,1-.15.54.54,0,0,0,.34-.5l.13,1a.83.83,0,0,1-.33.6,1.77,1.77,0,0,1-.72.37,3.2,3.2,0,0,1-.92.13A2.18,2.18,0,0,1,78.66,36.5Zm3.42-3.76a.84.84,0,0,0-.31-.71,1.32,1.32,0,0,0-.86-.25,2.28,2.28,0,0,0-.73.12,2.19,2.19,0,0,0-.64.34l-1.08-1.06a2.59,2.59,0,0,1,1-.7,3.88,3.88,0,0,1,1.43-.25,3.27,3.27,0,0,1,1.48.29,2.14,2.14,0,0,1,.93.83,2.69,2.69,0,0,1,.32,1.33v4.23H82.08Z"/><path class="cls-2" d="M86,30.32h1.87v6.59H86ZM89.42,32a1.23,1.23,0,0,0-.42-.1,1,1,0,0,0-.81.34,1.41,1.41,0,0,0-.29.95l-.13-1.72a2.23,2.23,0,0,1,.7-.91,1.56,1.56,0,0,1,1-.33,2.1,2.1,0,0,1,.74.13,1.62,1.62,0,0,1,.59.38l-1,1.42A.76.76,0,0,0,89.42,32Z"/><path class="cls-2" d="M91.71,30.32h3.23v1.49H91.71Zm1.08,6.18a1.9,1.9,0,0,1-.4-1.3V28.41h1.74v6.36a.61.61,0,0,0,.1.37.31.31,0,0,0,.28.13h.43v1.67h-.88A1.65,1.65,0,0,1,92.79,36.5Z"/><path class="cls-2" d="M98.84,27.68h6.77v1.68H98.84Zm2.51.76h1.74v8.47h-1.74Z"/><path class="cls-2" d="M106.38,30.32h1.87v6.59h-1.87Zm3.4,1.65a1.25,1.25,0,0,0-.43-.07,1,1,0,0,0-.81.34,1.41,1.41,0,0,0-.29.95l-.13-1.72a2.23,2.23,0,0,1,.7-.91,1.56,1.56,0,0,1,1-.33,2.1,2.1,0,0,1,.74.13,1.62,1.62,0,0,1,.59.38l-1,1.42a.73.73,0,0,0-.37-.16Z"/><path class="cls-2" d="M112.49,27.68h1.74v1.74h-1.74Zm0,2.64h1.74v6.59h-1.74Z"/><path class="cls-2" d="M116.7,36.5a2,2,0,0,1-.52-1.53,1.82,1.82,0,0,1,.58-1.47,2.69,2.69,0,0,1,1.76-.48h1.66l.08,1.32h-1.73a.88.88,0,0,0-.59.16.57.57,0,0,0-.2.47.54.54,0,0,0,.25.48,1.49,1.49,0,0,0,.75.15,2.82,2.82,0,0,0,1-.15.54.54,0,0,0,.34-.5l.13,1a.83.83,0,0,1-.33.6,1.77,1.77,0,0,1-.72.37,3.2,3.2,0,0,1-.92.13A2.17,2.17,0,0,1,116.7,36.5Zm3.42-3.76a.84.84,0,0,0-.31-.71,1.32,1.32,0,0,0-.86-.25,2.28,2.28,0,0,0-.73.12,2.19,2.19,0,0,0-.64.34l-1.08-1.06a2.59,2.59,0,0,1,1-.7,3.94,3.94,0,0,1,1.44-.25,3.22,3.22,0,0,1,1.47.29,2.14,2.14,0,0,1,.93.83,2.69,2.69,0,0,1,.32,1.33v4.23h-1.58Z"/><path class="cls-2" d="M125.8,34.74a.47.47,0,0,0,.14.37.56.56,0,0,0,.39.13h.29v1.67h-.89a1.62,1.62,0,0,1-1.23-.45,1.8,1.8,0,0,1-.44-1.29V27.68h1.74Z"/><rect class="cls-10" x="205.59" y="48.15" width="101.45" height="35.06" rx="8.26"/><rect class="cls-9" x="205.59" y="46.77" width="101.45" height="35.06" rx="8.26"/><rect class="cls-7" x="244.49" y="25.67" width="36.19" height="4.77"/><rect class="cls-7" x="244.49" y="42.92" width="36.19" height="2.38"/><rect class="cls-7" x="244.49" y="97.69" width="36.19" height="4.77"/><rect class="cls-7" x="251.54" y="116.21" width="29.14" height="4.77"/><rect class="cls-7" x="251.54" y="134.27" width="29.14" height="4.77"/><rect class="cls-1" x="218.03" y="216.32" width="70.12" height="7.36"/><rect class="cls-1" x="218.03" y="228.71" width="70.12" height="7.36"/><rect class="cls-1" x="218.03" y="203.93" width="70.12" height="7.36"/><rect class="cls-1" x="218.03" y="241.1" width="70.12" height="7.36"/><path class="cls-4" d="M247.68,256h36.8a3.68,3.68,0,0,1,3.68,3.68h0a3.68,3.68,0,0,1-3.68,3.68h-36.8A3.68,3.68,0,0,1,244,259.7h0A3.68,3.68,0,0,1,247.68,256Z"/><rect class="cls-7" x="188.68" y="218.05" width="24.84" height="3.27"/><rect class="cls-7" x="188.68" y="205.97" width="24.84" height="3.27"/><rect class="cls-7" x="188.68" y="230.76" width="24.84" height="3.27"/><rect class="cls-7" x="188.68" y="243.15" width="24.84" height="3.27"/><rect class="cls-4" x="70.04" y="234.03" width="63.87" height="10.64" rx="3.68"/></g><g id="Layer_5" data-name="Layer 5"><path class="cls-1" d="M38.56,106.55a5.63,5.63,0,0,1-2.67-.58,8.18,8.18,0,0,1-2-1.45.38.38,0,0,1,0-.49l1.52-2.09a.36.36,0,0,1,.27-.15h0a.39.39,0,0,1,.27.11,7.93,7.93,0,0,0,1.1.91,2.65,2.65,0,0,0,1.4.4,1.65,1.65,0,0,0,1.09-.34,1,1,0,0,0,.33-.75.72.72,0,0,0-.31-.62,5.54,5.54,0,0,0-1.35-.63l-1.06-.37a4.69,4.69,0,0,1-1.91-1.1,3.41,3.41,0,0,1-.86-2.46,4.23,4.23,0,0,1,1.2-3.11A4.4,4.4,0,0,1,39,92.55a6.57,6.57,0,0,1,4,1.33.38.38,0,0,1,.1.5l-1.31,2.13a.38.38,0,0,1-.27.17h-.05a.39.39,0,0,1-.25-.1,2.82,2.82,0,0,0-1.88-.82,1.23,1.23,0,0,0-1,.32.77.77,0,0,0-.22.54.5.5,0,0,0,.16.43,2.87,2.87,0,0,0,1,.47l1.44.54a5.32,5.32,0,0,1,1.85,1,3.55,3.55,0,0,1,1,2.62,5,5,0,0,1-1.23,3.4A5.14,5.14,0,0,1,38.56,106.55Z"/><path class="cls-1" d="M39,92.93a6.14,6.14,0,0,1,3.76,1.25l-1.31,2.13a3.11,3.11,0,0,0-2.13-.91,1.57,1.57,0,0,0-1.23.44,1.11,1.11,0,0,0-.33.79.9.9,0,0,0,.29.71,5.09,5.09,0,0,0,1.59.72l1,.36a4.84,4.84,0,0,1,1.73,1,3.17,3.17,0,0,1,.93,2.35,4.53,4.53,0,0,1-1.12,3.14,4.9,4.9,0,0,1-3.59,1.29,5.3,5.3,0,0,1-2.51-.53,8.14,8.14,0,0,1-1.86-1.39l1.52-2.09a7.52,7.52,0,0,0,1.18,1,3,3,0,0,0,1.59.46,2,2,0,0,0,1.33-.44,1.33,1.33,0,0,0,.46-1,1.12,1.12,0,0,0-.44-.91,6.27,6.27,0,0,0-1.48-.7l-1-.36a4.33,4.33,0,0,1-1.77-1,3.12,3.12,0,0,1-.76-2.2A3.88,3.88,0,0,1,36,94.19a4.12,4.12,0,0,1,3-1.26m0-.75a4.87,4.87,0,0,0-3.67,1.38A4.68,4.68,0,0,0,34,96.94a3.8,3.8,0,0,0,1,2.72,4.86,4.86,0,0,0,2.06,1.19l1,.37a5.79,5.79,0,0,1,1.24.57.37.37,0,0,1,.17.33.58.58,0,0,1-.19.46,1.38,1.38,0,0,1-.85.26,2.21,2.21,0,0,1-1.2-.35,6.78,6.78,0,0,1-1-.86.75.75,0,0,0-.53-.22h-.06a.76.76,0,0,0-.55.31l-1.52,2.09a.76.76,0,0,0,.08,1,8.83,8.83,0,0,0,2.06,1.53,6.06,6.06,0,0,0,2.84.61,5.45,5.45,0,0,0,4.13-1.52A5.37,5.37,0,0,0,44,101.74a3.92,3.92,0,0,0-1.16-2.9,5.8,5.8,0,0,0-2-1.12l-1-.36-.49-.18a3.2,3.2,0,0,1-.86-.39v-.16a.35.35,0,0,1,.1-.26.91.91,0,0,1,.71-.22,2.45,2.45,0,0,1,1.63.72.78.78,0,0,0,.5.19h.1a.77.77,0,0,0,.54-.35l1.31-2.12a.76.76,0,0,0-.19-1A6.94,6.94,0,0,0,39,92.19Z"/><path class="cls-1" d="M46.86,92.84h2.93a.38.38,0,0,1,.37.37h0v12.67a.38.38,0,0,1-.37.38H46.86a.39.39,0,0,1-.37-.37V93.21a.38.38,0,0,1,.37-.37Z"/><path class="cls-1" d="M49.79,93.21v12.68H46.86V93.21h2.93m0-.75H46.86a.77.77,0,0,0-.75.75v12.68a.77.77,0,0,0,.75.75h2.93a.77.77,0,0,0,.75-.75V93.21A.77.77,0,0,0,49.79,92.46Z"/><path class="cls-1" d="M60,106.55a6.33,6.33,0,0,1-4.9-1.88,7.59,7.59,0,0,1,0-10.16,7,7,0,0,1,5.25-2,6.65,6.65,0,0,1,3.76,1A7.46,7.46,0,0,1,66.19,96a.37.37,0,0,1,0,.29.35.35,0,0,1-.18.23l-2.64,1.42a.54.54,0,0,1-.18,0h-.11a.35.35,0,0,1-.22-.19,3.62,3.62,0,0,0-1-1.23A2.86,2.86,0,0,0,60.14,96a3.12,3.12,0,0,0-2.35.91,4,4,0,0,0-1,2.75,3.6,3.6,0,0,0,1,2.64,3,3,0,0,0,2.3.88,2.85,2.85,0,0,0,1.95-.6,2.36,2.36,0,0,0,.63-.84H60.14a.39.39,0,0,1-.37-.37V99a.38.38,0,0,1,.37-.37h6.29a.38.38,0,0,1,.38.36h0v.13a8.64,8.64,0,0,1-2.06,5.6A6.2,6.2,0,0,1,60,106.55Z"/><path class="cls-1" d="M60.26,92.93a6.34,6.34,0,0,1,3.55.95,6.88,6.88,0,0,1,2,2.26l-2.64,1.42a4,4,0,0,0-1.12-1.36,3.2,3.2,0,0,0-1.94-.61,3.45,3.45,0,0,0-2.62,1,4.4,4.4,0,0,0-1.08,3,4,4,0,0,0,1.06,2.9,3.34,3.34,0,0,0,2.57,1,3.24,3.24,0,0,0,2.2-.68,2.89,2.89,0,0,0,.91-1.5h-3V99h6.29v.13a8.26,8.26,0,0,1-2,5.34,5.82,5.82,0,0,1-4.43,1.7,6,6,0,0,1-4.63-1.77,6.69,6.69,0,0,1-1.86-4.82,6.79,6.79,0,0,1,1.82-4.81,6.54,6.54,0,0,1,5-1.84m0-.75a7.27,7.27,0,0,0-5.52,2.07,8,8,0,0,0,0,10.68,6.76,6.76,0,0,0,5.17,2A6.58,6.58,0,0,0,65,105a8.88,8.88,0,0,0,2.16-5.86V99a.76.76,0,0,0-.75-.75H63.59l2.63-1.42a.75.75,0,0,0,.29-1,7.61,7.61,0,0,0-2.28-2.51,7,7,0,0,0-4-1.08Zm-.17,10.58a2.59,2.59,0,0,1-2-.76,3.24,3.24,0,0,1-.85-2.38,3.61,3.61,0,0,1,.88-2.49,2.67,2.67,0,0,1,2.07-.79,2.51,2.51,0,0,1,1.5.46,3.07,3.07,0,0,1,.89,1.1.74.74,0,0,0,.31.32H60.14a.77.77,0,0,0-.75.75v2.36a.77.77,0,0,0,.75.75H62l-.17.16a2.51,2.51,0,0,1-1.73.52Z"/><path class="cls-1" d="M79.85,106.26a.39.39,0,0,1-.29-.13l-6.22-7.42v7.18a.38.38,0,0,1-.37.37H70a.39.39,0,0,1-.37-.37V93.21a.39.39,0,0,1,.37-.37h2.55a.39.39,0,0,1,.29.13l6.21,7.38V93.21a.38.38,0,0,1,.38-.37h2.92a.38.38,0,0,1,.38.37v12.68a.38.38,0,0,1-.38.37Z"/><path class="cls-1" d="M82.39,93.21v12.68H79.85L73,97.68v8.21H70V93.21h2.55l6.88,8.17V93.21h2.92m0-.75H79.47a.76.76,0,0,0-.75.75v6.12l-5.56-6.6a.74.74,0,0,0-.57-.27H70a.77.77,0,0,0-.75.75v12.68a.77.77,0,0,0,.75.75h3a.77.77,0,0,0,.75-.75V99.74l5.55,6.63a.76.76,0,0,0,.58.27h2.54a.76.76,0,0,0,.75-.75V93.21a.76.76,0,0,0-.75-.75Z"/><path class="cls-1" d="M97.8,106.55A5.47,5.47,0,0,1,93.58,105a5.79,5.79,0,0,1-1.51-4.27V93.22a.39.39,0,0,1,.37-.37h2.93a.38.38,0,0,1,.38.37v7.43a2.67,2.67,0,0,0,.55,1.87,2,2,0,0,0,1.5.55,1.92,1.92,0,0,0,1.49-.55,2.64,2.64,0,0,0,.57-1.87V93.22a.39.39,0,0,1,.37-.37h2.93a.38.38,0,0,1,.37.37h0v7.51A5.79,5.79,0,0,1,102,105,5.45,5.45,0,0,1,97.8,106.55Z"/><path class="cls-1" d="M103.16,93.21v7.51a5.36,5.36,0,0,1-1.41,4,6.14,6.14,0,0,1-7.9,0,5.45,5.45,0,0,1-1.41-4V93.21h2.93v7.43a3,3,0,0,0,.66,2.13,2.7,2.7,0,0,0,3.54,0,3,3,0,0,0,.66-2.13V93.21h2.93m0-.75h-2.93a.77.77,0,0,0-.75.75v7.43a2.32,2.32,0,0,1-.45,1.61,2,2,0,0,1-2.45,0,2.34,2.34,0,0,1-.46-1.62V93.2a.77.77,0,0,0-.75-.75H92.44a.77.77,0,0,0-.75.75v7.51a6.15,6.15,0,0,0,1.62,4.53,6.87,6.87,0,0,0,9,0,6.15,6.15,0,0,0,1.62-4.53V93.2a.77.77,0,0,0-.75-.75Z"/><path class="cls-1" d="M107.36,106.26a.38.38,0,0,1-.38-.37V93.21a.38.38,0,0,1,.38-.37h4.46A5.15,5.15,0,0,1,115.4,94a4.19,4.19,0,0,1,1.36,3.36,4.5,4.5,0,0,1-1.19,3.24,4.7,4.7,0,0,1-3.5,1.23h-1.41v4.08a.38.38,0,0,1-.38.37Zm4-7.59a1.85,1.85,0,0,0,1.32-.37,1.36,1.36,0,0,0,.36-1,1.29,1.29,0,0,0-.36-1,1.94,1.94,0,0,0-1.38-.38h-.61v2.69Z"/><path class="cls-1" d="M111.82,93.21a4.79,4.79,0,0,1,3.33,1.05,3.88,3.88,0,0,1,1.23,3.08,4,4,0,0,1-1.08,3,4.36,4.36,0,0,1-3.23,1.12h-1.79v4.45h-2.92V93.21h4.46m-1.54,5.84h1a2.21,2.21,0,0,0,1.58-.48,1.8,1.8,0,0,0,.47-1.25,1.68,1.68,0,0,0-.47-1.24,2.3,2.3,0,0,0-1.64-.47h-1v3.44m1.54-6.59H107.3a.76.76,0,0,0-.75.75v12.68a.76.76,0,0,0,.75.75h2.92a.76.76,0,0,0,.75-.75h0v-3.7h1a5,5,0,0,0,3.77-1.35,4.87,4.87,0,0,0,1.29-3.5,4.55,4.55,0,0,0-1.49-3.64,5.42,5.42,0,0,0-3.82-1.24Zm-.79,3.9h.24a1.76,1.76,0,0,1,1.12.26,1,1,0,0,1,.24.7,1,1,0,0,1-.25.72,1.69,1.69,0,0,1-1,.26H111V96.36Z"/><path class="cls-1" d="M183.72,131.92l1-1.6a3.66,3.66,0,0,0,2.75,1.31c1,0,1.51-.51,1.51-1.07,0-1.67-5-.5-5-4.12a3,3,0,0,1,3.07-2.93h.22a4.55,4.55,0,0,1,3.38,1.34l-1,1.53a3.51,3.51,0,0,0-2.52-1.06c-.78,0-1.22.38-1.22,1,0,1.52,5,.49,5,4.08,0,1.76-1.15,3.08-3.48,3.08A4.76,4.76,0,0,1,183.72,131.92Z"/><path class="cls-1" d="M192.77,129.43v-5.77h1.87v5.71a2,2,0,0,0,4.07,0v-5.71h1.89v5.77c0,2.37-1.28,4-3.92,4S192.77,131.8,192.77,129.43Z"/><path class="cls-1" d="M203,133.27v-9.61h4.56a2.36,2.36,0,0,1,2.5,2.19v.26a2.11,2.11,0,0,1-1.49,2.21,2.25,2.25,0,0,1,1.66,2.34,2.39,2.39,0,0,1-2.18,2.6,1.93,1.93,0,0,1-.34,0Zm5.18-6.8a1,1,0,0,0-1-1h-2.31v2h2.31a.94.94,0,0,0,1-.92v-.08Zm.17,3.91a1,1,0,0,0-.89-1.1h-2.61v2.19h2.39a1,1,0,0,0,1.07-.92.49.49,0,0,0,0-.17Z"/><path class="cls-1" d="M219.77,133.27v-6.93l-2.44,6.93h-.81l-2.44-6.93v6.93h-1.85v-9.61h2.59l2.1,6,2.11-6h2.6v9.61Z"/><path class="cls-1" d="M224,133.27v-9.61h1.84v9.61Z"/><path class="cls-1" d="M230.21,133.27v-7.81h-2.53v-1.8h6.91v1.8h-2.52v7.81Z"/><path class="cls-11" d="M224.32,69.32a7.72,7.72,0,0,1-1.91-.21,10.61,10.61,0,0,1-1.53-.52V66.34h.22a5.43,5.43,0,0,0,1.57.93,4.94,4.94,0,0,0,1.66.32h.54a2,2,0,0,0,.53-.14,1.27,1.27,0,0,0,.42-.31.72.72,0,0,0,.17-.51.68.68,0,0,0-.28-.57,1.64,1.64,0,0,0-.66-.33l-1-.24a8.73,8.73,0,0,1-1-.28,3.2,3.2,0,0,1-1.57-1,2.74,2.74,0,0,1-.48-1.64,2.56,2.56,0,0,1,1.12-2.15,4.7,4.7,0,0,1,2.81-.82,8.63,8.63,0,0,1,1.68.17,7.16,7.16,0,0,1,1.49.47V62.4h-.21a4.9,4.9,0,0,0-1.28-.77,4.21,4.21,0,0,0-1.56-.31,3.43,3.43,0,0,0-.56,0,1.87,1.87,0,0,0-.52.17,1,1,0,0,0-.38.3.66.66,0,0,0-.17.45.7.7,0,0,0,.26.57,2.55,2.55,0,0,0,1,.39l.92.21a7.9,7.9,0,0,1,1,.27,3.28,3.28,0,0,1,1.46,1,2.43,2.43,0,0,1,.48,1.58,2.74,2.74,0,0,1-1.11,2.27A4.8,4.8,0,0,1,224.32,69.32Z"/><path class="cls-11" d="M237.1,69.15h-2.22v-.79a6.44,6.44,0,0,1-1.06.73,2.41,2.41,0,0,1-1.15.25,2.08,2.08,0,0,1-1.66-.67,3,3,0,0,1-.59-2V62h2.23v4.43a1.75,1.75,0,0,0,.14.59.73.73,0,0,0,.31.34,1.24,1.24,0,0,0,.6.12,1.69,1.69,0,0,0,.55-.12,2.85,2.85,0,0,0,.6-.31V62h2.22Z"/><path class="cls-11" d="M246.77,65.48a4.13,4.13,0,0,1-.87,2.75,2.69,2.69,0,0,1-2.14,1.06,2.88,2.88,0,0,1-.92-.13,3.7,3.7,0,0,1-.84-.37l-.1.36h-2.12V59.27H242v3.49a4.9,4.9,0,0,1,1-.68,2.54,2.54,0,0,1,1.18-.26,2.19,2.19,0,0,1,1.92,1A4.7,4.7,0,0,1,246.77,65.48Zm-2.28,0a2.81,2.81,0,0,0-.32-1.53,1.15,1.15,0,0,0-1-.45,2,2,0,0,0-.59.09,2.42,2.42,0,0,0-.58.29v3.58a1.69,1.69,0,0,0,.44.12,3.38,3.38,0,0,0,.45,0,1.43,1.43,0,0,0,1.21-.53,2.72,2.72,0,0,0,.39-1.52Z"/><path class="cls-11" d="M251.14,69.34a5.78,5.78,0,0,1-1.49-.17,5.31,5.31,0,0,1-1.16-.4V66.89h.18l.36.27a3.1,3.1,0,0,0,.57.3,4.5,4.5,0,0,0,.7.25,3.48,3.48,0,0,0,.85.11,2.14,2.14,0,0,0,.83-.15.46.46,0,0,0,.35-.46.45.45,0,0,0-.16-.38,1.84,1.84,0,0,0-.64-.24l-.64-.13a5.78,5.78,0,0,1-.69-.17,2.5,2.5,0,0,1-1.26-.77,2,2,0,0,1-.42-1.34,1.9,1.9,0,0,1,.22-.9,2.59,2.59,0,0,1,.64-.76,3.78,3.78,0,0,1,1.05-.51,4.86,4.86,0,0,1,1.42-.19,6.32,6.32,0,0,1,1.37.15,4.91,4.91,0,0,1,1.06.36v1.8h-.17a2.92,2.92,0,0,0-.37-.24,2.73,2.73,0,0,0-.48-.25,2.39,2.39,0,0,0-.62-.21,2.82,2.82,0,0,0-.71-.09,1.8,1.8,0,0,0-.82.17.5.5,0,0,0-.33.44.47.47,0,0,0,.16.38,2.32,2.32,0,0,0,.72.27l.66.14a4.35,4.35,0,0,1,.71.18,2.39,2.39,0,0,1,1.17.72,2.15,2.15,0,0,1-.51,3,3.54,3.54,0,0,1-1.07.52A5.27,5.27,0,0,1,251.14,69.34Z"/><path class="cls-11" d="M260.13,69.34a5.57,5.57,0,0,1-1.62-.23,3.26,3.26,0,0,1-1.27-.68,3.13,3.13,0,0,1-.83-1.17,4.23,4.23,0,0,1-.3-1.65,4.3,4.3,0,0,1,.32-1.74A3.27,3.27,0,0,1,258.56,62a5.3,5.3,0,0,1,3.87.36V64.3h-.28a3,3,0,0,0-.33-.28,2.36,2.36,0,0,0-.42-.28,2.21,2.21,0,0,0-.55-.23,2.59,2.59,0,0,0-.68-.09,1.63,1.63,0,0,0-1.32.59,2.54,2.54,0,0,0-.46,1.6,2.26,2.26,0,0,0,.5,1.6,1.71,1.71,0,0,0,1.32.53,2.64,2.64,0,0,0,.74-.1,2.14,2.14,0,0,0,.54-.23,3.28,3.28,0,0,0,.38-.27l.28-.26h.28v1.9L262,69a2.21,2.21,0,0,1-.51.18,6,6,0,0,1-.61.14A4.7,4.7,0,0,1,260.13,69.34Z"/><path class="cls-11" d="M269.25,64.12h-.19a1.51,1.51,0,0,0-.37-.07h-.53a2.57,2.57,0,0,0-.73.1q-.39.1-.75.24v4.78h-2.22V62h2.22v1l.42-.35a2.93,2.93,0,0,1,.5-.34,2.34,2.34,0,0,1,.56-.25,1.77,1.77,0,0,1,.6-.11h.48Z"/><path class="cls-11" d="M273.36,61H271V59.27h2.35Zm-.07,8.15h-2.22V62h2.22Z"/><path class="cls-11" d="M283,65.48a4.2,4.2,0,0,1-.86,2.75A2.69,2.69,0,0,1,280,69.29a2.91,2.91,0,0,1-.93-.13,4.47,4.47,0,0,1-.84-.37l-.09.36H276V59.27h2.22v3.49a4.9,4.9,0,0,1,1-.68,2.5,2.5,0,0,1,1.17-.26,2.19,2.19,0,0,1,1.92,1A4.69,4.69,0,0,1,283,65.48Zm-2.27,0A2.73,2.73,0,0,0,280.4,64a1.14,1.14,0,0,0-1-.45,2,2,0,0,0-.6.09,2.62,2.62,0,0,0-.58.29v3.58a1.76,1.76,0,0,0,.45.12,3.38,3.38,0,0,0,.45,0,1.43,1.43,0,0,0,1.2-.53,2.71,2.71,0,0,0,.37-1.52Z"/><path class="cls-11" d="M288.81,69.34a4.52,4.52,0,0,1-3.1-1,3.54,3.54,0,0,1-1.07-2.75,3.86,3.86,0,0,1,1-2.78,3.68,3.68,0,0,1,2.81-1,3.21,3.21,0,0,1,2.46.89,3.56,3.56,0,0,1,.82,2.52V66h-4.86a2,2,0,0,0,.21.83,1.34,1.34,0,0,0,.47.53,1.76,1.76,0,0,0,.66.28,3.84,3.84,0,0,0,.83.09,3.31,3.31,0,0,0,.77-.09,3.37,3.37,0,0,0,.68-.22c.18-.08.35-.17.51-.26l.37-.25h.24v1.84c-.18.07-.35.13-.5.2a4.4,4.4,0,0,1-.62.18,5,5,0,0,1-.75.15A7.26,7.26,0,0,1,288.81,69.34Zm.73-4.68a1.71,1.71,0,0,0-.32-1.07,1.21,1.21,0,0,0-1-.37,1.33,1.33,0,0,0-1,.39,1.67,1.67,0,0,0-.4,1Z"/><g id="Layer_1-2-2" data-name="Layer 1-2"><path class="cls-1" d="M411.79,31.82A8.92,8.92,0,0,1,410.44,33a9.47,9.47,0,0,1-2,1.51c-.82.44-1.67.84-2.54,1.2-.49.2-2.23.45-2.37,1-.38-.31-.29,0-.33.24a11.3,11.3,0,0,0,.1,1.93v1.77c0,.58.55,1.07.08,1.49a6.58,6.58,0,0,1-2,.77c-.67.23-1.23.52-1.79,0-.82-.79.08-1.2.36-1.87.2-.46.33-.61.16-1.1a7.47,7.47,0,0,1-.42-1.29,6.65,6.65,0,0,1,.11-1V36.8c0-.68-.13-1.33-.14-2,0-.32,0-.31.23-.55a1.47,1.47,0,0,0,.31-.11c.07,0,0-.22.09-.25a4.37,4.37,0,0,1,.94-.26,4.82,4.82,0,0,1,1.2,0c1,0,2.3-1.16,3.09-1.65A12.43,12.43,0,0,0,408,30.21a3.06,3.06,0,0,0,.43-1.44c.08-.48-.06-.58-.56-.83a2.35,2.35,0,0,0-.92-.32c-.43,0-.73.23-1.17.06l.68-.32a3.48,3.48,0,0,0-2-.6,12.09,12.09,0,0,0-1.69.25,12.57,12.57,0,0,0-3.28,1,3,3,0,0,0-1.37.88c-.33.5.06.66-.06,1.11a6,6,0,0,0-.75.92c-.41.17-1.19-.5-1.43-.67A3.86,3.86,0,0,1,394.66,29a.74.74,0,0,1-.1-.52c.07-.36.06-.16.31-.39a12.67,12.67,0,0,1,3.06-1.83,18.48,18.48,0,0,1,5.8-1.9c0,.32-.4.34-.57.57A11,11,0,0,1,412,27.27a2.72,2.72,0,0,1,1.14,2.25c-.13.66-.68,1-1,1.54-.11.18-.11.45-.24.59s-.4.05-.63.36Z"/><path class="cls-1" d="M398.3,47.6c.11-.15.09-.31.15-.42s.23-.22.34-.36.22-.46.37-.68.16-.29.31-.32c.34-.09.39.2.42.2a4.57,4.57,0,0,0,1.49-.44,4.18,4.18,0,0,1,3.36.15c.78.52,1.82,1.46,1.46,2.36a5.75,5.75,0,0,1-2.52,2,6.81,6.81,0,0,1-2.8.73,4.56,4.56,0,0,1-1.5-.35,3.18,3.18,0,0,1-1.1-.52,3.59,3.59,0,0,1-.34-1.36C397.87,48.23,397.73,47.69,398.3,47.6Z"/></g></g></g></g></svg>