<svg xmlns="http://www.w3.org/2000/svg" viewBox="0 0 322.69 297"><defs><style>.cls-1{fill:#426fb5;opacity:0.53;}.cls-2{fill:#ec1e24;opacity:0.5;}.cls-3,.cls-5{fill:none;}.cls-3,.cls-5,.cls-6{stroke:#000;stroke-linecap:round;stroke-width:7px;}.cls-3{stroke-miterlimit:10;}.cls-4,.cls-6{fill:#fff;}.cls-5,.cls-6{stroke-linejoin:round;}</style></defs><title>off-illi</title><g id="Layer_2" data-name="Layer 2"><g id="Layer_1-2" data-name="Layer 1"><path class="cls-1" d="M165.07,96.05V95.5H120.43v.55c0,22.54-17.89,40.81-39.95,40.81H40C17.89,136.86,0,155.13,0,177.67v78.52C0,278.73,17.89,297,40,297h205.6c22.06,0,39.95-18.27,39.95-40.81V177.67c0-22.54-17.89-40.81-39.95-40.81H205C183,136.86,165.07,118.59,165.07,96.05Z"/><rect class="cls-2" x="30" width="225" height="88" rx="22.71"/><rect class="cls-3" x="35.5" y="7.5" width="225" height="88" rx="17.49"/><path class="cls-4" d="M103.57,64.61a5.62,5.62,0,0,1-2.39-2.34,7.68,7.68,0,0,1-.82-3.69V57.1l4.7,0v1.49a2.22,2.22,0,0,0,.59,1.64,2.19,2.19,0,0,0,1.64.6,2.08,2.08,0,0,0,1.59-.59,2.26,2.26,0,0,0,.56-1.62V56.17a2.12,2.12,0,0,0-.43-1.33,4,4,0,0,0-1.1-1c-.45-.27-1.07-.6-1.84-1l-.15-.08-.14-.07-.24-.12A16.15,16.15,0,0,1,102.91,51a6.64,6.64,0,0,1-1.81-2.24,7.4,7.4,0,0,1-.73-3.43V43.9a7.6,7.6,0,0,1,.81-3.63A5.48,5.48,0,0,1,103.54,38a8,8,0,0,1,3.71-.8,7.79,7.79,0,0,1,3.64.8,5.38,5.38,0,0,1,2.32,2.33A8,8,0,0,1,114,44v1.56l-4.71.06V44a2.41,2.41,0,0,0-.54-1.67,1.92,1.92,0,0,0-1.51-.6,2.19,2.19,0,0,0-1.59.54,2,2,0,0,0-.56,1.5v1.85a2.21,2.21,0,0,0,.41,1.35,3.6,3.6,0,0,0,1,1c.42.26,1,.57,1.73.94l.43.21.44.23.07,0,.07,0A19.91,19.91,0,0,1,111.82,51a5.71,5.71,0,0,1,1.66,2,7.11,7.11,0,0,1,.68,3.31v2.3a7.79,7.79,0,0,1-.81,3.69A5.47,5.47,0,0,1,111,64.61a7.85,7.85,0,0,1-3.69.81A8,8,0,0,1,103.57,64.61Z"/><path class="cls-4" d="M121.89,65.14h-4.72V37.45h4.72Z"/><path class="cls-4" d="M138.73,50.19v8.28a8,8,0,0,1-.81,3.73,5.59,5.59,0,0,1-2.35,2.39,7.66,7.66,0,0,1-3.7.83,8.17,8.17,0,0,1-3.75-.8,5.52,5.52,0,0,1-2.39-2.32,7.56,7.56,0,0,1-.83-3.64V44.3a8.42,8.42,0,0,1,.81-3.83A5.54,5.54,0,0,1,128.06,38a7.52,7.52,0,0,1,3.7-.85,7.42,7.42,0,0,1,3.62.82,5.5,5.5,0,0,1,2.32,2.38,8.15,8.15,0,0,1,.8,3.73v2.14h-4.86V44.09a2.57,2.57,0,0,0-.23-1.15,1.68,1.68,0,0,0-.65-.74,1.93,1.93,0,0,0-1-.26,2.07,2.07,0,0,0-1.1.29,1.79,1.79,0,0,0-.71.82,2.85,2.85,0,0,0-.25,1.25V58.66a2.08,2.08,0,0,0,.26,1,1.6,1.6,0,0,0,.75.68,2.64,2.64,0,0,0,1.16.24,2.61,2.61,0,0,0,1.19-.25,1.68,1.68,0,0,0,.77-.72,2.29,2.29,0,0,0,.27-1.14V54.72h-2.32V50.19Z"/><path class="cls-4" d="M142.12,37.45h3.71l6.51,18.47-.51.74V37.45h4.3V65.12h-3.75l-6.44-17.41.5-.76V65.12h-4.32Z"/><path class="cls-4" d="M168,64.59a5.41,5.41,0,0,1-2.28-2.4,8.35,8.35,0,0,1-.78-3.76v-21h4.74V58.57a2.31,2.31,0,0,0,.5,1.57,1.73,1.73,0,0,0,1.37.56,1.82,1.82,0,0,0,1.4-.56,2.31,2.31,0,0,0,.5-1.57V37.45h4.74v21a8.22,8.22,0,0,1-.79,3.76,5.46,5.46,0,0,1-2.28,2.4,7.19,7.19,0,0,1-3.57.83A7.11,7.11,0,0,1,168,64.59Z"/><path class="cls-4" d="M181.27,37.45H186V65.14h-4.72Zm2.21,12.41h4.89a1.87,1.87,0,0,0,1-.26,1.74,1.74,0,0,0,.65-.78,3.05,3.05,0,0,0,.23-1.22V44.34a3.53,3.53,0,0,0-.22-1.28,1.72,1.72,0,0,0-.64-.8,1.76,1.76,0,0,0-1-.28h-4.89V37.45h5a7.94,7.94,0,0,1,3.53.72,5,5,0,0,1,2.22,2.12,7,7,0,0,1,.77,3.36v4.67a6.58,6.58,0,0,1-.77,3.28A5.08,5.08,0,0,1,192,53.68a7.91,7.91,0,0,1-3.51.72h-5Z"/><path class="cls-5" d="M169.5,96V95.5h-43V96A38.48,38.48,0,0,1,88,134.5H49A38.48,38.48,0,0,0,10.5,173v74A38.48,38.48,0,0,0,49,285.5H247A38.48,38.48,0,0,0,285.5,247V173A38.48,38.48,0,0,0,247,134.5H208A38.48,38.48,0,0,1,169.5,96Z"/><path class="cls-6" d="M305.47,101.82,226.38,60l25.31,84.45c.37,1.24,2.18,1.21,2.85-.05l11.53-21.48,37.9,47.7,15.22-12.1L281.9,111.62l23-7C306.23,104.17,306.61,102.42,305.47,101.82Z"/><path class="cls-4" d="M297.47,101.82,218.38,60l25.31,84.45c.37,1.24,2.18,1.21,2.85-.05l11.53-21.48,37.9,47.7,15.22-12.1L273.9,111.62l23-7C298.23,104.17,298.61,102.42,297.47,101.82Z"/><path class="cls-5" d="M305.47,101.82,226.38,60l25.31,84.45c.37,1.24,2.18,1.21,2.85-.05l11.53-21.48,37.9,47.7,15.22-12.1L281.9,111.62l23-7C306.23,104.17,306.61,102.42,305.47,101.82Z"/><path class="cls-4" d="M48.81,178.66l-1.13-.24a9.69,9.69,0,0,1-2.13-.71,8.33,8.33,0,0,1-1.81-1.16l1.49-2.24a6.75,6.75,0,0,0,2.21,1.26A7.71,7.71,0,0,0,50,176a4.83,4.83,0,0,0,2.65-.61,1.92,1.92,0,0,0,.94-1.72h0a1.78,1.78,0,0,0-.42-1.25,2.42,2.42,0,0,0-1.1-.68,13.34,13.34,0,0,0-1.75-.4l-.07,0h-.07l-.21,0a17.16,17.16,0,0,1-2.81-.67,4.06,4.06,0,0,1-1.87-1.38,4.52,4.52,0,0,1-.78-2.83h0a5,5,0,0,1,.73-2.77,4.57,4.57,0,0,1,2.11-1.74,8.33,8.33,0,0,1,3.33-.6,8.16,8.16,0,0,1,1.83.21,9,9,0,0,1,1.8.59,10.55,10.55,0,0,1,1.72,1l-1.36,2.31a8.27,8.27,0,0,0-2-1.07,6,6,0,0,0-2-.36,4.54,4.54,0,0,0-2.51.59,1.9,1.9,0,0,0-.88,1.67h0a1.73,1.73,0,0,0,.46,1.28,2.73,2.73,0,0,0,1.14.69,19.1,19.1,0,0,0,1.92.46l.08,0,.09,0,.13,0,.13,0a14.65,14.65,0,0,1,2.64.76,4.25,4.25,0,0,1,1.78,1.43,4.54,4.54,0,0,1,.71,2.69v0a4.85,4.85,0,0,1-.75,2.73,4.59,4.59,0,0,1-2.18,1.73,9.06,9.06,0,0,1-3.44.59Z"/><path class="cls-4" d="M64.12,178.49H61.26v-17h2.86Z"/><path class="cls-4" d="M81.67,169.13v3.16a7,7,0,0,1-.76,3.34,5.36,5.36,0,0,1-2.13,2.24,6.26,6.26,0,0,1-3.19.79,6.84,6.84,0,0,1-3.23-.74,5.29,5.29,0,0,1-2.16-2.11,6.28,6.28,0,0,1-.77-3.15v-5a7.18,7.18,0,0,1,.76-3.34,5.39,5.39,0,0,1,2.13-2.23,6.28,6.28,0,0,1,3.2-.79,6.07,6.07,0,0,1,2.75.63,5.82,5.82,0,0,1,2.11,1.77,6.86,6.86,0,0,1,1.15,2.66h-3a2.91,2.91,0,0,0-.65-1.2,2.87,2.87,0,0,0-1.06-.77,3.14,3.14,0,0,0-1.27-.26,3.22,3.22,0,0,0-1.69.43,3,3,0,0,0-1.12,1.25,4.16,4.16,0,0,0-.39,1.85v5a3.36,3.36,0,0,0,.4,1.67,2.74,2.74,0,0,0,1.15,1.11,3.55,3.55,0,0,0,1.72.4,3.27,3.27,0,0,0,1.68-.42,2.74,2.74,0,0,0,1.12-1.21,4.17,4.17,0,0,0,.4-1.88v-.51h-3v-2.69Z"/><path class="cls-4" d="M87.1,161.45h3.05l7.33,13.11-.28.3V161.45h2.72v17H96.85l-7.31-12.91.28-.3v13.21H87.1Z"/><path class="cls-4" d="M114.17,177.92a4.91,4.91,0,0,1-2.08-2.17,7.52,7.52,0,0,1-.72-3.43V161.45h2.8v11A3.6,3.6,0,0,0,115,175a3.17,3.17,0,0,0,2.43.92,3.23,3.23,0,0,0,2.45-.92,3.64,3.64,0,0,0,.86-2.58v-11h2.8v10.87a7.52,7.52,0,0,1-.72,3.43,4.93,4.93,0,0,1-2.09,2.17,7.73,7.73,0,0,1-6.6,0Z"/><path class="cls-4" d="M129.13,161.45h2.8v17h-2.8Zm1.35,7.74h5.45a2.22,2.22,0,0,0,1.19-.31,2.07,2.07,0,0,0,.8-.88,3.3,3.3,0,0,0,0-2.66,2,2,0,0,0-.79-.89,2.29,2.29,0,0,0-1.2-.32h-5.45v-2.68h5.37a5.52,5.52,0,0,1,2.74.65,4.57,4.57,0,0,1,1.84,1.83,6,6,0,0,1,0,5.48,4.6,4.6,0,0,1-1.84,1.82,5.63,5.63,0,0,1-2.74.65h-5.37Z"/><path class="cls-4" d="M156.54,161.45h2l6.4,17h-3l-4.41-12.7-4.4,12.7h-3Zm-3.39,11.12h9v2.68h-9Z"/><path class="cls-4" d="M169.12,161.45h3l7.34,13.11-.28.3V161.45h2.72v17h-3.07l-7.32-12.91.28-.3v13.21h-2.71Z"/><path class="cls-4" d="M187.72,161.45h2.8v17h-2.8Zm1.62,14.35h4a3.9,3.9,0,0,0,2.69-.86,3.16,3.16,0,0,0,1-2.47v-5a3.15,3.15,0,0,0-1-2.46,3.85,3.85,0,0,0-2.69-.87h-4v-2.68h3.9a8.26,8.26,0,0,1,3.57.71,5,5,0,0,1,2.25,2.09,6.55,6.55,0,0,1,.78,3.3v4.83a6.71,6.71,0,0,1-.76,3.26,5.11,5.11,0,0,1-2.25,2.11,8,8,0,0,1-3.6.74h-3.89Z"/><path class="cls-4" d="M223.05,169.13v3.16a7.15,7.15,0,0,1-.75,3.34,5.48,5.48,0,0,1-2.13,2.24,6.3,6.3,0,0,1-3.2.79,6.8,6.8,0,0,1-3.22-.74,5.29,5.29,0,0,1-2.16-2.11,6.28,6.28,0,0,1-.77-3.15v-5a7.06,7.06,0,0,1,.76-3.34,5.39,5.39,0,0,1,2.13-2.23,6.26,6.26,0,0,1,3.19-.79,6.14,6.14,0,0,1,2.76.63,5.91,5.91,0,0,1,2.11,1.77,6.7,6.7,0,0,1,1.14,2.66h-3a3,3,0,0,0-1.72-2,3.11,3.11,0,0,0-1.27-.26,3.18,3.18,0,0,0-1.68.43,3,3,0,0,0-1.12,1.25,4.16,4.16,0,0,0-.4,1.85v5a3.36,3.36,0,0,0,.41,1.67,2.74,2.74,0,0,0,1.15,1.11,3.48,3.48,0,0,0,1.71.4,3.31,3.31,0,0,0,1.69-.42,2.8,2.8,0,0,0,1.12-1.21,4.18,4.18,0,0,0,.39-1.88v-.51h-3v-2.69Z"/><path class="cls-4" d="M228.49,161.45h2.8v17h-2.8Zm1.16,0h10v2.68h-10Zm0,7.24h8.73v2.67h-8.73Zm0,7.11h10v2.69h-10Z"/><path class="cls-4" d="M242.29,161.45h12.26v2.68H242.29Zm4.73,1.39h2.79v15.65H247Z"/><path class="cls-4" d="M71.28,250.85H62.69V210.26l-6.42,3V204l6.28-3.53h8.73Z"/><path class="cls-4" d="M80.5,248.2q-3-3.16-3-9V212.06q0-5.79,3-9c2-2.12,4.9-3.17,8.6-3.17s6.57,1,8.6,3.17,3,5.1,3,9v27.18q0,5.79-3,9t-8.6,3.18C85.4,251.38,82.54,250.32,80.5,248.2ZM91.34,242a4.11,4.11,0,0,0,.81-2.71V212.06a4.09,4.09,0,0,0-.81-2.7,2.77,2.77,0,0,0-2.24-1,2.73,2.73,0,0,0-2.23,1,4,4,0,0,0-.82,2.7v27.18a4.06,4.06,0,0,0,.82,2.71,2.76,2.76,0,0,0,2.23,1A2.8,2.8,0,0,0,91.34,242Z"/><path class="cls-4" d="M108,220.12a6.87,6.87,0,0,1-2.12-5.35v-7.53a6.86,6.86,0,0,1,2.12-5.35,10.31,10.31,0,0,1,12,0,7,7,0,0,1,2.1,5.42v7.46a6.86,6.86,0,0,1-2.12,5.37,10.36,10.36,0,0,1-12,0Zm24.33-19.67h6.83l-21.63,50.4H110.7Zm-17.24,15.86a1.73,1.73,0,0,0,.39-1.2v-8.28a1.54,1.54,0,0,0-.39-1.13,1.7,1.7,0,0,0-2.19,0,1.58,1.58,0,0,0-.4,1.16v8.25a1.74,1.74,0,0,0,.4,1.2,1.61,1.61,0,0,0,2.19,0Zm14.44,33.14a6.88,6.88,0,0,1-2.12-5.36v-7.52a6.89,6.89,0,0,1,2.12-5.36,10.35,10.35,0,0,1,12,0,7,7,0,0,1,2.09,5.43v7.45a6.86,6.86,0,0,1-2.11,5.38,8.66,8.66,0,0,1-6,1.91A8.57,8.57,0,0,1,129.53,249.45Zm7.08-3.81a1.69,1.69,0,0,0,.4-1.2v-8.28a1.5,1.5,0,0,0-.4-1.13,1.45,1.45,0,0,0-1.09-.4,1.46,1.46,0,0,0-1.09.4,1.54,1.54,0,0,0-.4,1.16v8.25a1.69,1.69,0,0,0,.4,1.2,1.41,1.41,0,0,0,1.09.43A1.39,1.39,0,0,0,136.61,245.64Z"/><path class="cls-4" d="M165.11,250a10,10,0,0,1-4.42-4.06,12.57,12.57,0,0,1-1.52-6.39V211.78a12.7,12.7,0,0,1,1.52-6.41,9.9,9.9,0,0,1,4.42-4.06,18.19,18.19,0,0,1,13.9,0,9.85,9.85,0,0,1,4.42,4.06,12.7,12.7,0,0,1,1.53,6.41v27.74a12.57,12.57,0,0,1-1.53,6.39A10,10,0,0,1,179,250a17.83,17.83,0,0,1-13.9,0Zm9.22-7.71a3.4,3.4,0,0,0,1.44-1.49,5.31,5.31,0,0,0,.49-2.36V212.82a5.19,5.19,0,0,0-.49-2.32,3.35,3.35,0,0,0-1.44-1.49,4.62,4.62,0,0,0-2.27-.52,4.51,4.51,0,0,0-2.25.52,3.35,3.35,0,0,0-1.42,1.49,5.06,5.06,0,0,0-.49,2.32v25.59a5.18,5.18,0,0,0,.49,2.36,3.41,3.41,0,0,0,1.42,1.49,4.62,4.62,0,0,0,2.25.52A4.73,4.73,0,0,0,174.33,242.26Z"/><path class="cls-4" d="M191.13,200.45h8.6v50.4h-8.6Zm3.85,0h18.58v8.25H195Zm0,21.7h16.85v8.25H195Z"/><path class="cls-4" d="M217.3,200.45h8.6v50.4h-8.6Zm3.85,0h18.58v8.25H221.15Zm0,21.7H238v8.25H221.15Z"/></g></g></svg>