<svg xmlns="http://www.w3.org/2000/svg" viewBox="0 0 61.48 104.32"><defs><style>.cls-1{fill:#fd0;}.cls-2{fill:#fff;opacity:0.5;}.cls-3{fill:#d3edf3;stroke:#000;}.cls-3,.cls-4{stroke-linecap:round;stroke-linejoin:round;stroke-width:3px;}.cls-4{fill:none;stroke:#010102;}</style></defs><title>timer</title><g id="Layer_2" data-name="Layer 2"><g id="Layer_5" data-name="Layer 5"><path class="cls-1" d="M10.43,90.07V81.66l20.31-11L51,74.91V90.07Zm0-53.87V29.82L51,27.8v8.41L30.8,49.11Z"/><polygon class="cls-2" points="54.93 11.04 6.66 11.04 6.66 38.88 28.5 52.72 6.66 66.63 6.66 94.48 54.93 94.48 54.93 66.63 33.09 52.8 54.93 38.88 54.93 11.04"/><rect class="cls-3" x="1.5" y="1.5" width="58.48" height="8.96"/><rect class="cls-3" x="1.5" y="93.86" width="58.48" height="8.96"/><polygon class="cls-4" points="54.87 10.46 6.6 10.46 6.6 38.31 28.44 52.14 6.6 66.06 6.6 93.9 54.87 93.9 54.87 66.06 33.04 52.22 54.87 38.31 54.87 10.46"/></g></g></svg>